<svg width="256" height="104" viewBox="0 0 256 104" fill="none" xmlns="http://www.w3.org/2000/svg">
<g filter="url(#filter0_d_387_38)">
<rect x="4" y="3.20001" width="248" height="88" fill="#D9D9D9"/>
<path fill-rule="evenodd" clip-rule="evenodd" d="M248.8 6.40002V92.8H10.4V86.6286H242.608V6.40002H248.8Z" fill="#A8A8A8"/>
<path fill-rule="evenodd" clip-rule="evenodd" d="M3.99999 93.8V0.999982H248.8V7.18665H10.1975V93.8H3.99999Z" fill="#F9F9F9"/>
<path fill-rule="evenodd" clip-rule="evenodd" d="M248.9 3.09677H7.1V92.9032H248.9V3.09677ZM4 0V96H252V0H4Z" fill="black"/>
<path d="M87.7852 48.9639C89.1621 48.9639 90.2803 48.5293 91.1396 47.6602C91.999 46.791 92.4287 45.6631 92.4287 44.2764C92.4287 42.9189 91.9893 41.8008 91.1104 40.9219C90.2412 40.043 89.1328 39.6035 87.7852 39.6035C86.4277 39.6035 85.3145 40.043 84.4453 40.9219C83.5859 41.791 83.1562 42.9092 83.1562 44.2764C83.1562 45.6436 83.5859 46.7666 84.4453 47.6455C85.3145 48.5244 86.4277 48.9639 87.7852 48.9639ZM83.2148 39.5742C83.7617 38.8906 84.4453 38.3682 85.2656 38.0068C86.0859 37.6455 87.0137 37.4648 88.0488 37.4648C90.0117 37.4648 91.6475 38.1289 92.9561 39.457C94.2646 40.7754 94.9189 42.4111 94.9189 44.3643C94.9189 46.2881 94.2451 47.9189 92.8975 49.2568C91.5596 50.5947 89.9238 51.2637 87.9902 51.2637C86.9648 51.2637 86.0713 51.083 85.3096 50.7217C84.5479 50.3604 83.9229 49.8135 83.4346 49.0811V50.2529C83.4346 50.5166 83.3857 50.707 83.2881 50.8242C83.2002 50.9414 83.0488 51 82.834 51H80.1533C79.7725 51 79.4893 50.9121 79.3037 50.7363C79.1182 50.5605 79.0254 50.2969 79.0254 49.9453C79.0254 49.5547 79.1377 49.291 79.3623 49.1543C79.5869 49.0078 80.0312 48.9346 80.6953 48.9346H81.0029V33.9346H80.7246C80.0605 33.9346 79.6064 33.8564 79.3623 33.7002C79.1182 33.5439 78.9961 33.2705 78.9961 32.8799C78.9961 32.5283 79.0938 32.2646 79.2891 32.0889C79.4844 31.9131 79.7725 31.8252 80.1533 31.8252H82.3799C82.6729 31.8252 82.8828 31.874 83.0098 31.9717C83.1465 32.0693 83.2148 32.2207 83.2148 32.4258V39.5742ZM102.461 44.877C102.539 46.2832 103.012 47.3721 103.881 48.1436C104.76 48.9053 105.957 49.2861 107.47 49.2861C108.613 49.2861 109.858 48.9834 111.206 48.3779C112.553 47.7627 113.369 47.4551 113.652 47.4551C113.945 47.4551 114.189 47.5479 114.384 47.7334C114.58 47.9189 114.677 48.1484 114.677 48.4219C114.677 48.7051 114.575 48.9639 114.37 49.1982C114.165 49.4326 113.837 49.6621 113.388 49.8867C112.412 50.3652 111.401 50.7314 110.356 50.9854C109.321 51.2393 108.291 51.3662 107.265 51.3662C105.039 51.3662 103.256 50.7266 101.919 49.4473C100.581 48.1582 99.9117 46.4541 99.9117 44.335C99.9117 42.1768 100.62 40.4287 102.036 39.0908C103.452 37.7529 105.297 37.084 107.573 37.084C109.633 37.084 111.342 37.709 112.7 38.959C114.057 40.209 114.736 41.7227 114.736 43.5C114.736 44.0469 114.619 44.4131 114.384 44.5986C114.16 44.7842 113.54 44.877 112.524 44.877H112.304H102.461ZM102.534 42.958H112.07C111.923 41.7959 111.435 40.8633 110.605 40.1602C109.785 39.4473 108.774 39.0908 107.573 39.0908C106.274 39.0908 105.18 39.4326 104.292 40.1162C103.403 40.7998 102.817 41.7471 102.534 42.958ZM127.419 39.6328C126.14 39.6328 125.095 40.0283 124.284 40.8193C123.474 41.6104 123.069 42.6357 123.069 43.8955C123.069 45.1357 123.474 46.1562 124.284 46.957C125.095 47.748 126.14 48.1436 127.419 48.1436C128.689 48.1436 129.729 47.748 130.539 46.957C131.36 46.1562 131.77 45.1357 131.77 43.8955C131.77 42.6553 131.36 41.6348 130.539 40.834C129.729 40.0332 128.689 39.6328 127.419 39.6328ZM133.777 50.2236C133.777 51.5908 133.708 52.5576 133.571 53.124C133.435 53.7002 133.2 54.2031 132.868 54.6328C132.321 55.3555 131.555 55.9023 130.569 56.2734C129.582 56.6543 128.42 56.8447 127.082 56.8447C125.969 56.8447 125.154 56.7373 124.636 56.5225C124.128 56.3076 123.874 55.9658 123.874 55.4971C123.874 55.1943 123.996 54.9258 124.24 54.6914C124.494 54.4668 124.792 54.3545 125.134 54.3545C125.398 54.3545 125.803 54.3887 126.35 54.457C126.897 54.5352 127.312 54.5742 127.595 54.5742C129.04 54.5742 130.066 54.2422 130.671 53.5781C131.277 52.9141 131.579 51.7764 131.579 50.165V48.3926C130.984 49.0859 130.324 49.5938 129.602 49.916C128.879 50.2383 128.049 50.3994 127.112 50.3994C125.285 50.3994 123.772 49.7939 122.571 48.583C121.379 47.3623 120.783 45.8193 120.783 43.9541C120.783 42.0791 121.399 40.5264 122.629 39.2959C123.86 38.0557 125.383 37.4355 127.199 37.4355C127.951 37.4355 128.684 37.5771 129.397 37.8604C130.119 38.1338 130.847 38.5537 131.579 39.1201V38.0654C131.579 37.8604 131.643 37.709 131.77 37.6113C131.906 37.5137 132.116 37.4648 132.4 37.4648H134.612C135.002 37.4648 135.295 37.5527 135.49 37.7285C135.686 37.8945 135.783 38.1484 135.783 38.4902C135.783 38.8809 135.661 39.1543 135.417 39.3105C135.173 39.4668 134.714 39.5449 134.04 39.5449H133.777V50.2236ZM146.899 33.2461C146.899 32.1914 146.992 31.5273 147.178 31.2539C147.373 30.9805 147.783 30.8438 148.408 30.8438C149.013 30.8438 149.414 30.9609 149.609 31.1953C149.804 31.4199 149.902 31.9619 149.902 32.8213C149.902 33.6611 149.809 34.1836 149.624 34.3887C149.448 34.584 149.043 34.6816 148.408 34.6816C147.783 34.6816 147.373 34.5889 147.178 34.4033C146.992 34.2178 146.899 33.832 146.899 33.2461ZM149.609 48.9346H154.311C154.692 48.9346 154.971 49.0176 155.146 49.1836C155.332 49.3398 155.425 49.5938 155.425 49.9453C155.425 50.3457 155.337 50.624 155.161 50.7803C154.995 50.9268 154.682 51 154.223 51H142.856C142.466 51 142.173 50.9121 141.977 50.7363C141.782 50.5605 141.684 50.2969 141.684 49.9453C141.684 49.6035 141.787 49.3496 141.992 49.1836C142.197 49.0176 142.505 48.9346 142.915 48.9346H147.383V39.5449H144.526C144.126 39.5449 143.818 39.457 143.603 39.2812C143.398 39.0957 143.296 38.832 143.296 38.4902C143.296 38.1484 143.393 37.8945 143.589 37.7285C143.784 37.5527 144.077 37.4648 144.468 37.4648H148.76C149.023 37.4648 149.228 37.5186 149.375 37.626C149.531 37.7334 149.609 37.8799 149.609 38.0654V48.9346ZM163.215 48.9346V39.5449H162.937C162.273 39.5449 161.814 39.4668 161.56 39.3105C161.316 39.1543 161.194 38.8809 161.194 38.4902C161.194 38.1289 161.296 37.8701 161.501 37.7139C161.706 37.5479 162.038 37.4648 162.497 37.4648H163.186H164.592C164.856 37.4648 165.061 37.5186 165.207 37.626C165.354 37.7334 165.427 37.8799 165.427 38.0654V39.0615C166.14 38.3975 166.843 37.9092 167.537 37.5967C168.24 37.2744 168.967 37.1133 169.719 37.1133C171.194 37.1133 172.351 37.5723 173.191 38.4902C174.04 39.4082 174.465 40.6777 174.465 42.2988V48.9346H175.154C175.642 48.9346 175.994 49.0176 176.208 49.1836C176.423 49.3398 176.531 49.5938 176.531 49.9453C176.531 50.3262 176.413 50.5996 176.179 50.7656C175.954 50.9219 175.549 51 174.963 51H171.726C171.101 51 170.701 50.9268 170.525 50.7803C170.349 50.6338 170.261 50.3555 170.261 49.9453C170.261 49.5645 170.364 49.3008 170.569 49.1543C170.774 49.0078 171.16 48.9346 171.726 48.9346H172.239V42.8408C172.239 41.6982 171.98 40.8291 171.462 40.2334C170.945 39.6279 170.193 39.3252 169.206 39.3252C168.21 39.3252 167.331 39.6621 166.57 40.3359C165.808 41.0098 165.427 41.8447 165.427 42.8408V48.9346H165.94C166.526 48.9346 166.921 49.0078 167.126 49.1543C167.331 49.3008 167.434 49.5645 167.434 49.9453C167.434 50.3555 167.346 50.6338 167.17 50.7803C166.995 50.9268 166.565 51 165.881 51H163.215H162.424C162.024 51 161.721 50.917 161.516 50.751C161.321 50.5752 161.223 50.3066 161.223 49.9453C161.223 49.5547 161.335 49.291 161.56 49.1543C161.794 49.0078 162.244 48.9346 162.908 48.9346H163.215Z" fill="black"/>
</g>
<defs>
<filter id="filter0_d_387_38" x="0" y="0" width="256" height="104" filterUnits="userSpaceOnUse" color-interpolation-filters="sRGB">
<feFlood flood-opacity="0" result="BackgroundImageFix"/>
<feColorMatrix in="SourceAlpha" type="matrix" values="0 0 0 0 0 0 0 0 0 0 0 0 0 0 0 0 0 0 127 0" result="hardAlpha"/>
<feOffset dy="4"/>
<feGaussianBlur stdDeviation="2"/>
<feComposite in2="hardAlpha" operator="out"/>
<feColorMatrix type="matrix" values="0 0 0 0 0 0 0 0 0 0 0 0 0 0 0 0 0 0 0.25 0"/>
<feBlend mode="normal" in2="BackgroundImageFix" result="effect1_dropShadow_387_38"/>
<feBlend mode="normal" in="SourceGraphic" in2="effect1_dropShadow_387_38" result="shape"/>
</filter>
</defs>
</svg>
