<svg width="284" height="104" viewBox="0 0 284 104" fill="none" xmlns="http://www.w3.org/2000/svg">
<g filter="url(#filter0_d_9_59)">
<rect x="4" y="3" width="276" height="88" fill="#D9D9D9"/>
<path fill-rule="evenodd" clip-rule="evenodd" d="M276 6V93H11V86.7857H269.117V6H276Z" fill="#A8A8A8"/>
<path fill-rule="evenodd" clip-rule="evenodd" d="M4 93V0H276V6.2H10.8861V93H4Z" fill="#F9F9F9"/>
<path fill-rule="evenodd" clip-rule="evenodd" d="M276.55 3.09677H7.45V92.9032H276.55V3.09677ZM4 0V96H280V0H4Z" fill="black"/>
<path d="M86.7168 53.4873C86.668 53.9268 86.5557 54.2295 86.3799 54.3955C86.2041 54.5713 85.9258 54.6592 85.5449 54.6592C85.1348 54.6592 84.8271 54.5371 84.6221 54.293C84.4268 54.0586 84.3145 53.6729 84.2852 53.1357L84.0947 49.7373V49.4736C84.0947 49.0049 84.1826 48.6729 84.3584 48.4775C84.5439 48.2822 84.8467 48.1846 85.2666 48.1846C85.8525 48.1846 86.2725 48.6045 86.5264 49.4443C86.6436 49.8643 86.7559 50.1816 86.8633 50.3965C87.2051 51.0801 87.7422 51.6074 88.4746 51.9785C89.2168 52.3496 90.1006 52.5352 91.126 52.5352C92.3857 52.5352 93.4062 52.2373 94.1875 51.6416C94.9785 51.0459 95.374 50.2842 95.374 49.3564C95.374 48.585 95.1299 47.9648 94.6416 47.4961C94.1631 47.0273 93.46 46.7246 92.5322 46.5879L90.3643 46.2949C88.3428 46.0117 86.8682 45.4795 85.9404 44.6982C85.0127 43.917 84.5488 42.8184 84.5488 41.4023C84.5488 39.9082 85.1641 38.6533 86.3945 37.6377C87.6348 36.6221 89.1777 36.1143 91.0234 36.1143C91.5605 36.1143 92.127 36.1875 92.7227 36.334C93.3184 36.4707 93.9922 36.6904 94.7441 36.9932C94.7637 36.71 94.8418 36.5146 94.9785 36.4072C95.1152 36.2998 95.3496 36.2461 95.6816 36.2461C96.1113 36.2461 96.4092 36.3096 96.5752 36.4365C96.7412 36.5635 96.8438 36.8662 96.8828 37.3447L97.0879 40.4062V40.5527C97.0879 40.8945 96.9902 41.1631 96.7949 41.3584C96.5996 41.5439 96.3262 41.6367 95.9746 41.6367C95.457 41.6367 95.0566 41.2754 94.7734 40.5527C94.6367 40.1426 94.5 39.835 94.3633 39.6299C94.041 39.1416 93.5771 38.7656 92.9717 38.502C92.3662 38.2383 91.6777 38.1064 90.9062 38.1064C89.7246 38.1064 88.7627 38.3994 88.0205 38.9854C87.2881 39.5713 86.9219 40.3379 86.9219 41.2852C86.9219 42.0273 87.1953 42.6133 87.7422 43.043C88.2988 43.4727 89.1436 43.7656 90.2764 43.9219L92.6201 44.2148C94.3193 44.4395 95.5986 44.9619 96.458 45.7822C97.3174 46.5928 97.7471 47.6914 97.7471 49.0781C97.7471 50.7188 97.1367 52.0371 95.916 53.0332C94.6953 54.0195 93.0645 54.5127 91.0234 54.5127C90.3203 54.5127 89.6221 54.4297 88.9287 54.2637C88.2354 54.0977 87.498 53.8389 86.7168 53.4873ZM106.461 47.877C106.539 49.2832 107.012 50.3721 107.881 51.1436C108.76 51.9053 109.957 52.2861 111.47 52.2861C112.613 52.2861 113.858 51.9834 115.206 51.3779C116.553 50.7627 117.369 50.4551 117.652 50.4551C117.945 50.4551 118.189 50.5479 118.384 50.7334C118.58 50.9189 118.677 51.1484 118.677 51.4219C118.677 51.7051 118.575 51.9639 118.37 52.1982C118.165 52.4326 117.837 52.6621 117.388 52.8867C116.412 53.3652 115.401 53.7314 114.356 53.9854C113.321 54.2393 112.291 54.3662 111.265 54.3662C109.039 54.3662 107.256 53.7266 105.919 52.4473C104.581 51.1582 103.912 49.4541 103.912 47.335C103.912 45.1768 104.62 43.4287 106.036 42.0908C107.452 40.7529 109.297 40.084 111.573 40.084C113.633 40.084 115.342 40.709 116.7 41.959C118.057 43.209 118.736 44.7227 118.736 46.5C118.736 47.0469 118.619 47.4131 118.384 47.5986C118.16 47.7842 117.54 47.877 116.524 47.877H116.304H106.461ZM106.534 45.958H116.07C115.923 44.7959 115.435 43.8633 114.605 43.1602C113.785 42.4473 112.774 42.0908 111.573 42.0908C110.274 42.0908 109.18 42.4326 108.292 43.1162C107.403 43.7998 106.817 44.7471 106.534 45.958ZM135.828 41.2852C136.307 41.2852 136.654 41.3682 136.868 41.5342C137.093 41.7002 137.205 41.9639 137.205 42.3252C137.205 42.667 137.103 42.9258 136.898 43.1016C136.693 43.2676 136.385 43.3506 135.975 43.3506H130.042V48.2432C130.042 49.8447 130.247 50.8994 130.657 51.4072C131.077 51.915 131.79 52.1689 132.796 52.1689C133.685 52.1689 134.749 51.9102 135.989 51.3926C137.23 50.875 137.996 50.6162 138.289 50.6162C138.563 50.6162 138.792 50.7139 138.978 50.9092C139.173 51.1045 139.271 51.3438 139.271 51.627C139.271 51.9492 139.149 52.2324 138.904 52.4766C138.67 52.7109 138.265 52.9404 137.689 53.165C136.732 53.5459 135.867 53.8242 135.096 54C134.334 54.1758 133.616 54.2637 132.943 54.2637C131.8 54.2637 130.838 54.083 130.057 53.7217C129.285 53.3506 128.709 52.8037 128.328 52.0811C128.133 51.7393 127.991 51.334 127.904 50.8652C127.825 50.3965 127.786 49.6738 127.786 48.6973V48.2432V43.3506H125.296C124.886 43.3506 124.588 43.2725 124.403 43.1162C124.217 42.9502 124.124 42.6865 124.124 42.3252C124.124 41.9248 124.251 41.6514 124.505 41.5049C124.759 41.3584 125.301 41.2852 126.131 41.2852H127.786V38.2822V37.5059C127.786 37.0859 127.874 36.7783 128.05 36.583C128.236 36.3779 128.519 36.2754 128.9 36.2754C129.329 36.2754 129.627 36.3975 129.793 36.6416C129.959 36.8857 130.042 37.4424 130.042 38.3115V41.2852H135.828ZM156.246 41.2852C156.724 41.2852 157.071 41.3682 157.286 41.5342C157.511 41.7002 157.623 41.9639 157.623 42.3252C157.623 42.667 157.52 42.9258 157.315 43.1016C157.11 43.2676 156.803 43.3506 156.392 43.3506H150.46V48.2432C150.46 49.8447 150.665 50.8994 151.075 51.4072C151.495 51.915 152.208 52.1689 153.214 52.1689C154.102 52.1689 155.167 51.9102 156.407 51.3926C157.647 50.875 158.414 50.6162 158.707 50.6162C158.98 50.6162 159.21 50.7139 159.395 50.9092C159.591 51.1045 159.688 51.3438 159.688 51.627C159.688 51.9492 159.566 52.2324 159.322 52.4766C159.088 52.7109 158.682 52.9404 158.106 53.165C157.149 53.5459 156.285 53.8242 155.513 54C154.752 54.1758 154.034 54.2637 153.36 54.2637C152.218 54.2637 151.256 54.083 150.474 53.7217C149.703 53.3506 149.127 52.8037 148.746 52.0811C148.551 51.7393 148.409 51.334 148.321 50.8652C148.243 50.3965 148.204 49.6738 148.204 48.6973V48.2432V43.3506H145.714C145.304 43.3506 145.006 43.2725 144.82 43.1162C144.635 42.9502 144.542 42.6865 144.542 42.3252C144.542 41.9248 144.669 41.6514 144.923 41.5049C145.177 41.3584 145.719 41.2852 146.549 41.2852H148.204V38.2822V37.5059C148.204 37.0859 148.292 36.7783 148.468 36.583C148.653 36.3779 148.936 36.2754 149.317 36.2754C149.747 36.2754 150.045 36.3975 150.211 36.6416C150.377 36.8857 150.46 37.4424 150.46 38.3115V41.2852H156.246ZM171.317 36.2461C171.317 35.1914 171.41 34.5273 171.595 34.2539C171.79 33.9805 172.201 33.8438 172.826 33.8438C173.431 33.8438 173.831 33.9609 174.027 34.1953C174.222 34.4199 174.32 34.9619 174.32 35.8213C174.32 36.6611 174.227 37.1836 174.041 37.3887C173.866 37.584 173.46 37.6816 172.826 37.6816C172.201 37.6816 171.79 37.5889 171.595 37.4033C171.41 37.2178 171.317 36.832 171.317 36.2461ZM174.027 51.9346H178.729C179.11 51.9346 179.388 52.0176 179.564 52.1836C179.749 52.3398 179.842 52.5938 179.842 52.9453C179.842 53.3457 179.754 53.624 179.579 53.7803C179.412 53.9268 179.1 54 178.641 54H167.274C166.883 54 166.59 53.9121 166.395 53.7363C166.2 53.5605 166.102 53.2969 166.102 52.9453C166.102 52.6035 166.204 52.3496 166.41 52.1836C166.615 52.0176 166.922 51.9346 167.332 51.9346H171.8V42.5449H168.944C168.543 42.5449 168.236 42.457 168.021 42.2812C167.816 42.0957 167.713 41.832 167.713 41.4902C167.713 41.1484 167.811 40.8945 168.006 40.7285C168.202 40.5527 168.495 40.4648 168.885 40.4648H173.177C173.441 40.4648 173.646 40.5186 173.792 40.626C173.949 40.7334 174.027 40.8799 174.027 41.0654V51.9346ZM187.633 51.9346V42.5449H187.354C186.69 42.5449 186.231 42.4668 185.978 42.3105C185.733 42.1543 185.611 41.8809 185.611 41.4902C185.611 41.1289 185.714 40.8701 185.919 40.7139C186.124 40.5479 186.456 40.4648 186.915 40.4648H187.604H189.01C189.273 40.4648 189.479 40.5186 189.625 40.626C189.771 40.7334 189.845 40.8799 189.845 41.0654V42.0615C190.558 41.3975 191.261 40.9092 191.954 40.5967C192.657 40.2744 193.385 40.1133 194.137 40.1133C195.611 40.1133 196.769 40.5723 197.608 41.4902C198.458 42.4082 198.883 43.6777 198.883 45.2988V51.9346H199.571C200.06 51.9346 200.411 52.0176 200.626 52.1836C200.841 52.3398 200.948 52.5938 200.948 52.9453C200.948 53.3262 200.831 53.5996 200.597 53.7656C200.372 53.9219 199.967 54 199.381 54H196.144C195.519 54 195.118 53.9268 194.942 53.7803C194.767 53.6338 194.679 53.3555 194.679 52.9453C194.679 52.5645 194.781 52.3008 194.986 52.1543C195.191 52.0078 195.577 51.9346 196.144 51.9346H196.656V45.8408C196.656 44.6982 196.397 43.8291 195.88 43.2334C195.362 42.6279 194.61 42.3252 193.624 42.3252C192.628 42.3252 191.749 42.6621 190.987 43.3359C190.226 44.0098 189.845 44.8447 189.845 45.8408V51.9346H190.357C190.943 51.9346 191.339 52.0078 191.544 52.1543C191.749 52.3008 191.852 52.5645 191.852 52.9453C191.852 53.3555 191.764 53.6338 191.588 53.7803C191.412 53.9268 190.982 54 190.299 54H187.633H186.842C186.441 54 186.139 53.917 185.934 53.751C185.738 53.5752 185.641 53.3066 185.641 52.9453C185.641 52.5547 185.753 52.291 185.978 52.1543C186.212 52.0078 186.661 51.9346 187.325 51.9346H187.633ZM213.089 42.6328C211.81 42.6328 210.765 43.0283 209.955 43.8193C209.144 44.6104 208.739 45.6357 208.739 46.8955C208.739 48.1357 209.144 49.1562 209.955 49.957C210.765 50.748 211.81 51.1436 213.089 51.1436C214.359 51.1436 215.399 50.748 216.21 49.957C217.03 49.1562 217.44 48.1357 217.44 46.8955C217.44 45.6553 217.03 44.6348 216.21 43.834C215.399 43.0332 214.359 42.6328 213.089 42.6328ZM219.447 53.2236C219.447 54.5908 219.379 55.5576 219.242 56.124C219.105 56.7002 218.871 57.2031 218.539 57.6328C217.992 58.3555 217.225 58.9023 216.239 59.2734C215.253 59.6543 214.09 59.8447 212.753 59.8447C211.639 59.8447 210.824 59.7373 210.306 59.5225C209.798 59.3076 209.545 58.9658 209.545 58.4971C209.545 58.1943 209.667 57.9258 209.911 57.6914C210.165 57.4668 210.463 57.3545 210.804 57.3545C211.068 57.3545 211.473 57.3887 212.02 57.457C212.567 57.5352 212.982 57.5742 213.265 57.5742C214.711 57.5742 215.736 57.2422 216.341 56.5781C216.947 55.9141 217.25 54.7764 217.25 53.165V51.3926C216.654 52.0859 215.995 52.5938 215.272 52.916C214.549 53.2383 213.719 53.3994 212.782 53.3994C210.956 53.3994 209.442 52.7939 208.241 51.583C207.049 50.3623 206.454 48.8193 206.454 46.9541C206.454 45.0791 207.069 43.5264 208.299 42.2959C209.53 41.0557 211.053 40.4355 212.87 40.4355C213.622 40.4355 214.354 40.5771 215.067 40.8604C215.79 41.1338 216.517 41.5537 217.25 42.1201V41.0654C217.25 40.8604 217.313 40.709 217.44 40.6113C217.577 40.5137 217.787 40.4648 218.07 40.4648H220.282C220.672 40.4648 220.965 40.5527 221.161 40.7285C221.356 40.8945 221.454 41.1484 221.454 41.4902C221.454 41.8809 221.332 42.1543 221.088 42.3105C220.843 42.4668 220.384 42.5449 219.711 42.5449H219.447V53.2236ZM227.53 52.9453V50.3379C227.53 49.9082 227.609 49.6006 227.765 49.415C227.931 49.2295 228.195 49.1367 228.556 49.1367C228.956 49.1367 229.274 49.4102 229.508 49.957C229.664 50.2891 229.806 50.5381 229.933 50.7041C230.343 51.2314 230.948 51.6562 231.749 51.9785C232.55 52.291 233.434 52.4473 234.401 52.4473C235.436 52.4473 236.266 52.2373 236.891 51.8174C237.516 51.3975 237.828 50.8457 237.828 50.1621C237.828 49.4688 237.574 48.9756 237.067 48.6826C236.569 48.3896 235.709 48.2432 234.488 48.2432H233.683C231.691 48.2432 230.172 47.8965 229.127 47.2031C228.082 46.5098 227.56 45.5039 227.56 44.1855C227.56 42.8965 228.068 41.8955 229.083 41.1826C230.109 40.4697 231.544 40.1133 233.39 40.1133C234.142 40.1133 234.908 40.2207 235.69 40.4355C236.471 40.6406 236.881 40.7432 236.92 40.7432C237.028 40.7432 237.233 40.6504 237.535 40.4648C237.838 40.2695 238.136 40.1719 238.429 40.1719C238.761 40.1719 239.005 40.2939 239.161 40.5381C239.327 40.7822 239.41 41.1484 239.41 41.6367V43.3506C239.41 43.8682 239.332 44.2441 239.176 44.4785C239.02 44.7031 238.771 44.8154 238.429 44.8154C238.136 44.8154 237.775 44.5664 237.345 44.0684C237.042 43.7266 236.793 43.4678 236.598 43.292C236.08 42.8135 235.529 42.4717 234.943 42.2666C234.357 42.0518 233.668 41.9443 232.877 41.9443C231.959 41.9443 231.217 42.1494 230.651 42.5596C230.094 42.96 229.816 43.4727 229.816 44.0977C229.816 44.7129 230.104 45.1523 230.68 45.416C231.256 45.6797 232.496 45.8311 234.401 45.8701C236.432 45.9189 237.916 46.2754 238.854 46.9395C239.791 47.5938 240.26 48.6094 240.26 49.9863C240.26 51.3047 239.742 52.3594 238.707 53.1504C237.672 53.9414 236.276 54.3369 234.518 54.3369C233.961 54.3369 233.341 54.2832 232.657 54.1758C231.974 54.0781 231.114 53.9072 230.079 53.6631C229.738 53.8877 229.445 54.0537 229.2 54.1611C228.956 54.2783 228.751 54.3369 228.585 54.3369C228.243 54.3369 227.98 54.2197 227.794 53.9854C227.618 53.7412 227.53 53.3945 227.53 52.9453Z" fill="black"/>
<path fill-rule="evenodd" clip-rule="evenodd" d="M66.943 46.5C66.943 47.3359 66.8692 48.1225 66.7709 48.9092L71.958 52.9654C72.425 53.3342 72.548 53.9979 72.253 54.5388L67.3363 63.0446C67.115 63.4379 66.6971 63.6592 66.2792 63.6592C66.1317 63.6592 65.9842 63.6346 65.8367 63.5854L59.7155 61.1271C58.4371 62.0859 57.0605 62.9217 55.5609 63.5363L54.6267 70.0509C54.553 70.6409 54.0367 71.0834 53.4221 71.0834H43.5888C42.9742 71.0834 42.458 70.6409 42.3842 70.0509L41.45 63.5363C39.9505 62.9217 38.5738 62.1104 37.2955 61.1271L31.1742 63.5854C31.0513 63.6346 30.9038 63.6592 30.7563 63.6592C30.3138 63.6592 29.8959 63.4379 29.6746 63.0446L24.758 54.5388C24.463 53.9979 24.5859 53.3342 25.053 52.9654L30.24 48.9092C30.1417 48.1225 30.068 47.3113 30.068 46.5C30.068 45.6888 30.1417 44.8775 30.24 44.0909L25.053 40.0346C24.5859 39.6659 24.4384 39.0021 24.758 38.4613L29.6746 29.9554C29.8959 29.5621 30.3138 29.3409 30.7317 29.3409C30.8792 29.3409 31.0267 29.3654 31.1742 29.4146L37.2955 31.8729C38.5738 30.9142 39.9505 30.0784 41.45 29.4638L42.3842 22.9492C42.458 22.3592 42.9742 21.9167 43.5888 21.9167H53.4221C54.0367 21.9167 54.553 22.3592 54.6267 22.9492L55.5609 29.4638C57.0605 30.0784 58.4371 30.8896 59.7155 31.8729L65.8367 29.4146C65.9596 29.3654 66.1071 29.3409 66.2546 29.3409C66.6971 29.3409 67.115 29.5621 67.3363 29.9554L72.253 38.4613C72.548 39.0021 72.425 39.6659 71.958 40.0346L66.7709 44.0909C66.8692 44.8775 66.943 45.6642 66.943 46.5ZM62.0263 46.5C62.0263 45.9838 62.0017 45.4675 61.9034 44.7054L61.5592 41.9275L63.7471 40.2067L66.3776 38.1171L64.6567 35.1425L61.5346 36.3963L58.9288 37.4534L56.6917 35.7325C55.7084 34.995 54.725 34.4296 53.668 33.9871L51.0621 32.93L50.6688 30.1521L50.2017 26.8334H46.7846L46.293 30.1521L45.8996 32.93L43.2938 33.9871C42.2859 34.405 41.278 34.995 40.2209 35.7817L38.0084 37.4534L35.4517 36.4209L32.3296 35.1671L30.6088 38.1417L33.2638 40.2067L35.4517 41.9275L35.1075 44.7054C35.0338 45.4429 34.9846 46.0084 34.9846 46.5C34.9846 46.9917 35.0338 47.5571 35.1075 48.3192L35.4517 51.0971L33.2638 52.8179L30.6088 54.8829L32.3296 57.8575L35.4517 56.6038L38.0575 55.5467L40.2946 57.2675C41.278 58.005 42.2613 58.5704 43.3184 59.0129L45.9242 60.07L46.3175 62.8479L46.7846 66.1667H50.2263L50.718 62.8479L51.1113 60.07L53.7171 59.0129C54.725 58.595 55.733 58.005 56.7901 57.2184L59.0026 55.5467L61.5592 56.5792L64.6813 57.8329L66.4021 54.8584L63.7471 52.7934L61.5592 51.0725L61.9034 48.2946C61.9771 47.5571 62.0263 47.0163 62.0263 46.5ZM48.5055 36.6667C43.0725 36.6667 38.6721 41.0671 38.6721 46.5C38.6721 51.9329 43.0725 56.3334 48.5055 56.3334C53.9384 56.3334 58.3388 51.9329 58.3388 46.5C58.3388 41.0671 53.9384 36.6667 48.5055 36.6667ZM43.5888 46.5C43.5888 49.2042 45.8013 51.4167 48.5055 51.4167C51.2096 51.4167 53.4221 49.2042 53.4221 46.5C53.4221 43.7959 51.2096 41.5834 48.5055 41.5834C45.8013 41.5834 43.5888 43.7959 43.5888 46.5Z" fill="black" fill-opacity="0.54"/>
</g>
<defs>
<filter id="filter0_d_9_59" x="0" y="0" width="284" height="104" filterUnits="userSpaceOnUse" color-interpolation-filters="sRGB">
<feFlood flood-opacity="0" result="BackgroundImageFix"/>
<feColorMatrix in="SourceAlpha" type="matrix" values="0 0 0 0 0 0 0 0 0 0 0 0 0 0 0 0 0 0 127 0" result="hardAlpha"/>
<feOffset dy="4"/>
<feGaussianBlur stdDeviation="2"/>
<feComposite in2="hardAlpha" operator="out"/>
<feColorMatrix type="matrix" values="0 0 0 0 0 0 0 0 0 0 0 0 0 0 0 0 0 0 0.25 0"/>
<feBlend mode="normal" in2="BackgroundImageFix" result="effect1_dropShadow_9_59"/>
<feBlend mode="normal" in="SourceGraphic" in2="effect1_dropShadow_9_59" result="shape"/>
</filter>
</defs>
</svg>
