<svg width="256" height="104" viewBox="0 0 256 104" fill="none" xmlns="http://www.w3.org/2000/svg">
<g filter="url(#filter0_d_5_28)">
<rect x="4" y="3.20001" width="248" height="88" fill="#D9D9D9"/>
<path fill-rule="evenodd" clip-rule="evenodd" d="M248.8 6.39999V92.8H10.4V86.6286H242.608V6.39999H248.8Z" fill="#A8A8A8"/>
<path fill-rule="evenodd" clip-rule="evenodd" d="M4.00001 92.8V-1.79418e-05H248.8V6.18665H10.1975V92.8H4.00001Z" fill="#F9F9F9"/>
<path fill-rule="evenodd" clip-rule="evenodd" d="M248.9 3.09677H7.1V92.9032H248.9V3.09677ZM4 0V96H252V0H4Z" fill="black"/>
<path d="M75.0127 36.9346H72.5225C71.5752 36.9346 70.9795 36.8613 70.7354 36.7148C70.501 36.5586 70.3838 36.2803 70.3838 35.8799C70.3838 35.5283 70.4814 35.2646 70.6768 35.0889C70.8818 34.9131 71.1748 34.8252 71.5557 34.8252H76.3896C76.6533 34.8252 76.8584 34.8789 77.0049 34.9863C77.1514 35.0938 77.2246 35.2402 77.2246 35.4258V51.9346H81.8242C82.1953 51.9346 82.4639 52.0176 82.6299 52.1836C82.8057 52.3398 82.8936 52.5938 82.8936 52.9453C82.8936 53.3457 82.8105 53.624 82.6445 53.7803C82.4785 53.9268 82.166 54 81.707 54H70.8965C70.5156 54 70.2227 53.9121 70.0176 53.7363C69.8223 53.5605 69.7246 53.2969 69.7246 52.9453C69.7246 52.6035 69.8271 52.3496 70.0322 52.1836C70.2373 52.0176 70.5449 51.9346 70.9551 51.9346H75.0127V36.9346ZM96.4117 52.3154C97.9156 52.3154 99.1461 51.8418 100.103 50.8945C101.07 49.9375 101.553 48.7217 101.553 47.2471C101.553 45.7725 101.07 44.5566 100.103 43.5996C99.1363 42.6328 97.9059 42.1494 96.4117 42.1494C94.9176 42.1494 93.6871 42.6328 92.7203 43.5996C91.7633 44.5566 91.2848 45.7725 91.2848 47.2471C91.2848 48.7314 91.7633 49.9473 92.7203 50.8945C93.6773 51.8418 94.9078 52.3154 96.4117 52.3154ZM104.102 47.2471C104.102 49.3369 103.389 51.0459 101.963 52.374C100.538 53.7021 98.6871 54.3662 96.4117 54.3662C94.1461 54.3662 92.3004 53.7021 90.8746 52.374C89.4488 51.0459 88.7359 49.3369 88.7359 47.2471C88.7359 45.1572 89.4488 43.4531 90.8746 42.1348C92.3004 40.8066 94.1461 40.1426 96.4117 40.1426C98.6773 40.1426 100.523 40.8066 101.949 42.1348C103.384 43.4629 104.102 45.167 104.102 47.2471ZM116.419 42.6328C115.14 42.6328 114.095 43.0283 113.284 43.8193C112.474 44.6104 112.069 45.6357 112.069 46.8955C112.069 48.1357 112.474 49.1562 113.284 49.957C114.095 50.748 115.14 51.1436 116.419 51.1436C117.689 51.1436 118.729 50.748 119.539 49.957C120.36 49.1562 120.77 48.1357 120.77 46.8955C120.77 45.6553 120.36 44.6348 119.539 43.834C118.729 43.0332 117.689 42.6328 116.419 42.6328ZM122.777 53.2236C122.777 54.5908 122.708 55.5576 122.571 56.124C122.435 56.7002 122.2 57.2031 121.868 57.6328C121.321 58.3555 120.555 58.9023 119.569 59.2734C118.582 59.6543 117.42 59.8447 116.082 59.8447C114.969 59.8447 114.154 59.7373 113.636 59.5225C113.128 59.3076 112.874 58.9658 112.874 58.4971C112.874 58.1943 112.996 57.9258 113.24 57.6914C113.494 57.4668 113.792 57.3545 114.134 57.3545C114.398 57.3545 114.803 57.3887 115.35 57.457C115.897 57.5352 116.312 57.5742 116.595 57.5742C118.04 57.5742 119.066 57.2422 119.671 56.5781C120.277 55.9141 120.579 54.7764 120.579 53.165V51.3926C119.984 52.0859 119.324 52.5938 118.602 52.916C117.879 53.2383 117.049 53.3994 116.112 53.3994C114.285 53.3994 112.772 52.7939 111.571 51.583C110.379 50.3623 109.783 48.8193 109.783 46.9541C109.783 45.0791 110.399 43.5264 111.629 42.2959C112.86 41.0557 114.383 40.4355 116.199 40.4355C116.951 40.4355 117.684 40.5771 118.397 40.8604C119.119 41.1338 119.847 41.5537 120.579 42.1201V41.0654C120.579 40.8604 120.643 40.709 120.77 40.6113C120.906 40.5137 121.116 40.4648 121.4 40.4648H123.612C124.002 40.4648 124.295 40.5527 124.49 40.7285C124.686 40.8945 124.783 41.1484 124.783 41.4902C124.783 41.8809 124.661 42.1543 124.417 42.3105C124.173 42.4668 123.714 42.5449 123.04 42.5449H122.777V53.2236ZM156.317 36.2461C156.317 35.1914 156.41 34.5273 156.595 34.2539C156.79 33.9805 157.201 33.8438 157.826 33.8438C158.431 33.8438 158.831 33.9609 159.027 34.1953C159.222 34.4199 159.32 34.9619 159.32 35.8213C159.32 36.6611 159.227 37.1836 159.041 37.3887C158.866 37.584 158.46 37.6816 157.826 37.6816C157.201 37.6816 156.79 37.5889 156.595 37.4033C156.41 37.2178 156.317 36.832 156.317 36.2461ZM159.027 51.9346H163.729C164.11 51.9346 164.388 52.0176 164.564 52.1836C164.749 52.3398 164.842 52.5938 164.842 52.9453C164.842 53.3457 164.754 53.624 164.579 53.7803C164.412 53.9268 164.1 54 163.641 54H152.274C151.883 54 151.59 53.9121 151.395 53.7363C151.2 53.5605 151.102 53.2969 151.102 52.9453C151.102 52.6035 151.204 52.3496 151.41 52.1836C151.615 52.0176 151.922 51.9346 152.332 51.9346H156.8V42.5449H153.944C153.543 42.5449 153.236 42.457 153.021 42.2812C152.816 42.0957 152.713 41.832 152.713 41.4902C152.713 41.1484 152.811 40.8945 153.006 40.7285C153.202 40.5527 153.495 40.4648 153.885 40.4648H158.177C158.441 40.4648 158.646 40.5186 158.792 40.626C158.949 40.7334 159.027 40.8799 159.027 41.0654V51.9346ZM172.633 51.9346V42.5449H172.354C171.69 42.5449 171.231 42.4668 170.978 42.3105C170.733 42.1543 170.611 41.8809 170.611 41.4902C170.611 41.1289 170.714 40.8701 170.919 40.7139C171.124 40.5479 171.456 40.4648 171.915 40.4648H172.604H174.01C174.273 40.4648 174.479 40.5186 174.625 40.626C174.771 40.7334 174.845 40.8799 174.845 41.0654V42.0615C175.558 41.3975 176.261 40.9092 176.954 40.5967C177.657 40.2744 178.385 40.1133 179.137 40.1133C180.611 40.1133 181.769 40.5723 182.608 41.4902C183.458 42.4082 183.883 43.6777 183.883 45.2988V51.9346H184.571C185.06 51.9346 185.411 52.0176 185.626 52.1836C185.841 52.3398 185.948 52.5938 185.948 52.9453C185.948 53.3262 185.831 53.5996 185.597 53.7656C185.372 53.9219 184.967 54 184.381 54H181.144C180.519 54 180.118 53.9268 179.942 53.7803C179.767 53.6338 179.679 53.3555 179.679 52.9453C179.679 52.5645 179.781 52.3008 179.986 52.1543C180.191 52.0078 180.577 51.9346 181.144 51.9346H181.656V45.8408C181.656 44.6982 181.397 43.8291 180.88 43.2334C180.362 42.6279 179.61 42.3252 178.624 42.3252C177.628 42.3252 176.749 42.6621 175.987 43.3359C175.226 44.0098 174.845 44.8447 174.845 45.8408V51.9346H175.357C175.943 51.9346 176.339 52.0078 176.544 52.1543C176.749 52.3008 176.852 52.5645 176.852 52.9453C176.852 53.3555 176.764 53.6338 176.588 53.7803C176.412 53.9268 175.982 54 175.299 54H172.633H171.842C171.441 54 171.139 53.917 170.934 53.751C170.738 53.5752 170.641 53.3066 170.641 52.9453C170.641 52.5547 170.753 52.291 170.978 52.1543C171.212 52.0078 171.661 51.9346 172.325 51.9346H172.633Z" fill="black"/>
</g>
<defs>
<filter id="filter0_d_5_28" x="0" y="0" width="256" height="104" filterUnits="userSpaceOnUse" color-interpolation-filters="sRGB">
<feFlood flood-opacity="0" result="BackgroundImageFix"/>
<feColorMatrix in="SourceAlpha" type="matrix" values="0 0 0 0 0 0 0 0 0 0 0 0 0 0 0 0 0 0 127 0" result="hardAlpha"/>
<feOffset dy="4"/>
<feGaussianBlur stdDeviation="2"/>
<feComposite in2="hardAlpha" operator="out"/>
<feColorMatrix type="matrix" values="0 0 0 0 0 0 0 0 0 0 0 0 0 0 0 0 0 0 0.25 0"/>
<feBlend mode="normal" in2="BackgroundImageFix" result="effect1_dropShadow_5_28"/>
<feBlend mode="normal" in="SourceGraphic" in2="effect1_dropShadow_5_28" result="shape"/>
</filter>
</defs>
</svg>
