<svg width="207" height="85" viewBox="0 0 207 85" fill="none" xmlns="http://www.w3.org/2000/svg">
<g filter="url(#filter0_d_454_111)">
<rect x="4" y="2.56665" width="199" height="70.5833" fill="#A3A3A3"/>
<path fill-rule="evenodd" clip-rule="evenodd" d="M200.432 5.13333V74.4333H9.1355V69.4833H195.463V5.13333H200.432Z" fill="#A8A8A8"/>
<path fill-rule="evenodd" clip-rule="evenodd" d="M4.00011 74.4333V2.28522e-05H200.432V4.96224H8.97308V74.4333H4.00011Z" fill="#F9F9F9"/>
<path fill-rule="evenodd" clip-rule="evenodd" d="M200.512 2.48387H6.4875V74.5161H200.512V2.48387ZM4 0V77H203V0H4Z" fill="black"/>
<path d="M38.1729 42.1211V39.9482C38.1729 39.5902 38.238 39.3338 38.3682 39.1792C38.5065 39.0246 38.7262 38.9473 39.0273 38.9473C39.361 38.9473 39.6255 39.1751 39.8208 39.6309C39.951 39.9076 40.069 40.1151 40.1748 40.2534C40.5166 40.6929 41.0212 41.0469 41.6885 41.3154C42.3558 41.5758 43.0923 41.7061 43.8979 41.7061C44.7606 41.7061 45.4523 41.5311 45.9731 41.1812C46.494 40.8312 46.7544 40.3714 46.7544 39.8018C46.7544 39.224 46.5428 38.813 46.1196 38.5688C45.7046 38.3247 44.9884 38.2026 43.9712 38.2026H43.2998C41.6396 38.2026 40.3742 37.9137 39.5034 37.3359C38.6326 36.7581 38.1973 35.9199 38.1973 34.8213C38.1973 33.7471 38.6204 32.9129 39.4668 32.3188C40.3213 31.7248 41.5176 31.4277 43.0557 31.4277C43.6823 31.4277 44.3211 31.5173 44.9722 31.6963C45.6232 31.8672 45.965 31.9526 45.9976 31.9526C46.0871 31.9526 46.258 31.8753 46.5103 31.7207C46.7625 31.5579 47.0107 31.4766 47.2549 31.4766C47.5316 31.4766 47.735 31.5783 47.8652 31.7817C48.0036 31.9852 48.0728 32.2904 48.0728 32.6973V34.1255C48.0728 34.5568 48.0076 34.8701 47.8774 35.0654C47.7472 35.2526 47.5397 35.3462 47.2549 35.3462C47.0107 35.3462 46.7096 35.1387 46.3516 34.7236C46.0993 34.4388 45.8918 34.2231 45.729 34.0767C45.2977 33.6779 44.8379 33.3931 44.3496 33.2222C43.8613 33.0431 43.2876 32.9536 42.6284 32.9536C41.8634 32.9536 41.245 33.1245 40.7729 33.4663C40.3091 33.8 40.0771 34.2272 40.0771 34.748C40.0771 35.2607 40.3172 35.627 40.7974 35.8467C41.2775 36.0664 42.311 36.1925 43.8979 36.2251C45.5907 36.2658 46.8276 36.5628 47.6089 37.1162C48.3901 37.6615 48.7808 38.5078 48.7808 39.6553C48.7808 40.7539 48.3494 41.6328 47.4868 42.292C46.6242 42.9512 45.4604 43.2808 43.9956 43.2808C43.5317 43.2808 43.015 43.236 42.4453 43.1465C41.8757 43.0651 41.1595 42.9227 40.2969 42.7192C40.012 42.9064 39.7679 43.0448 39.5645 43.1343C39.361 43.2319 39.1901 43.2808 39.0518 43.2808C38.7669 43.2808 38.5472 43.1831 38.3926 42.9878C38.2461 42.7843 38.1729 42.4954 38.1729 42.1211ZM59.3867 28.2051C59.3867 27.3262 59.464 26.7728 59.6187 26.5449C59.7814 26.3171 60.1232 26.2031 60.644 26.2031C61.1486 26.2031 61.4823 26.3008 61.645 26.4961C61.8078 26.6833 61.8892 27.1349 61.8892 27.8511C61.8892 28.5509 61.8118 28.9863 61.6572 29.1572C61.5107 29.32 61.173 29.4014 60.644 29.4014C60.1232 29.4014 59.7814 29.3241 59.6187 29.1694C59.464 29.0148 59.3867 28.6934 59.3867 28.2051ZM61.645 41.2788H65.5635C65.8809 41.2788 66.1128 41.348 66.2593 41.4863C66.4139 41.6165 66.4912 41.8281 66.4912 42.1211C66.4912 42.4548 66.418 42.6867 66.2715 42.8169C66.1331 42.939 65.8727 43 65.4902 43H56.0176C55.6921 43 55.4479 42.9268 55.2852 42.7803C55.1224 42.6338 55.041 42.4141 55.041 42.1211C55.041 41.8363 55.1265 41.6247 55.2974 41.4863C55.4683 41.348 55.7246 41.2788 56.0664 41.2788H59.7896V33.4541H57.4092C57.0755 33.4541 56.8192 33.3809 56.6401 33.2344C56.4692 33.0798 56.3838 32.86 56.3838 32.5752C56.3838 32.2904 56.4652 32.0788 56.6279 31.9404C56.7907 31.7939 57.0348 31.7207 57.3604 31.7207H60.937C61.1567 31.7207 61.3276 31.7655 61.4497 31.855C61.5799 31.9445 61.645 32.0666 61.645 32.2212V41.2788ZM77.1826 33.5273C76.1165 33.5273 75.2458 33.8569 74.5703 34.5161C73.8949 35.1753 73.5571 36.0298 73.5571 37.0796C73.5571 38.1131 73.8949 38.9635 74.5703 39.6309C75.2458 40.29 76.1165 40.6196 77.1826 40.6196C78.2406 40.6196 79.1073 40.29 79.7827 39.6309C80.4663 38.9635 80.8081 38.1131 80.8081 37.0796C80.8081 36.0461 80.4663 35.1956 79.7827 34.5283C79.1073 33.861 78.2406 33.5273 77.1826 33.5273ZM82.4805 42.353C82.4805 43.4924 82.4235 44.298 82.3096 44.77C82.1956 45.2502 82.0003 45.6693 81.7236 46.0273C81.2679 46.6296 80.6291 47.0853 79.8071 47.3945C78.9852 47.7119 78.0168 47.8706 76.9019 47.8706C75.9741 47.8706 75.2946 47.7811 74.8633 47.6021C74.4401 47.423 74.2285 47.1382 74.2285 46.7476C74.2285 46.4953 74.3302 46.2715 74.5337 46.0762C74.7453 45.889 74.9935 45.7954 75.2783 45.7954C75.498 45.7954 75.8358 45.8239 76.2915 45.8809C76.7472 45.946 77.0931 45.9785 77.3291 45.9785C78.5335 45.9785 79.388 45.7018 79.8926 45.1484C80.3971 44.5951 80.6494 43.647 80.6494 42.3042V40.8271C80.153 41.4049 79.6037 41.8281 79.0015 42.0967C78.3993 42.3652 77.7075 42.4995 76.9263 42.4995C75.4045 42.4995 74.1431 41.995 73.1421 40.9858C72.1493 39.9686 71.6528 38.6828 71.6528 37.1284C71.6528 35.5659 72.1655 34.272 73.1909 33.2466C74.2163 32.2131 75.4858 31.6963 76.9995 31.6963C77.6261 31.6963 78.2365 31.8143 78.8306 32.0503C79.4328 32.2782 80.0391 32.6281 80.6494 33.1001V32.2212C80.6494 32.0503 80.7023 31.9242 80.8081 31.8428C80.922 31.7614 81.097 31.7207 81.333 31.7207H83.1763C83.5018 31.7207 83.7459 31.7939 83.9087 31.9404C84.0715 32.0788 84.1528 32.2904 84.1528 32.5752C84.1528 32.9007 84.0511 33.1286 83.8477 33.2588C83.6442 33.389 83.2617 33.4541 82.7002 33.4541H82.4805V42.353ZM89.998 41.2788V33.4541H89.7661C89.2127 33.4541 88.8302 33.389 88.6187 33.2588C88.4152 33.1286 88.3135 32.9007 88.3135 32.5752C88.3135 32.2741 88.3989 32.0584 88.5698 31.9282C88.7407 31.7899 89.0174 31.7207 89.3999 31.7207H89.9736H91.1455C91.3652 31.7207 91.5361 31.7655 91.6582 31.855C91.7803 31.9445 91.8413 32.0666 91.8413 32.2212V33.0513C92.4354 32.4979 93.0213 32.091 93.5991 31.8306C94.1851 31.562 94.7913 31.4277 95.418 31.4277C96.6468 31.4277 97.6112 31.8102 98.311 32.5752C99.019 33.3402 99.373 34.3981 99.373 35.749V41.2788H99.9468C100.354 41.2788 100.647 41.348 100.826 41.4863C101.005 41.6165 101.094 41.8281 101.094 42.1211C101.094 42.4385 100.997 42.6663 100.801 42.8047C100.614 42.9349 100.276 43 99.7881 43H97.0903C96.5695 43 96.2358 42.939 96.0894 42.8169C95.9429 42.6948 95.8696 42.4629 95.8696 42.1211C95.8696 41.8037 95.9551 41.584 96.126 41.4619C96.2969 41.3398 96.6183 41.2788 97.0903 41.2788H97.5176V36.2007C97.5176 35.2485 97.3019 34.5243 96.8706 34.0278C96.4393 33.5233 95.8127 33.271 94.9907 33.271C94.1606 33.271 93.4282 33.5518 92.7935 34.1133C92.1587 34.6748 91.8413 35.3706 91.8413 36.2007V41.2788H92.2686C92.7568 41.2788 93.0864 41.3398 93.2573 41.4619C93.4282 41.584 93.5137 41.8037 93.5137 42.1211C93.5137 42.4629 93.4404 42.6948 93.2939 42.8169C93.1475 42.939 92.7894 43 92.2197 43H89.998H89.3389C89.0052 43 88.7529 42.9308 88.582 42.7925C88.4193 42.646 88.3379 42.4222 88.3379 42.1211C88.3379 41.7956 88.4315 41.5758 88.6187 41.4619C88.814 41.3398 89.1883 41.2788 89.7417 41.2788H89.998ZM128.568 41.5962C129.822 41.5962 130.847 41.2015 131.645 40.4121C132.45 39.6146 132.853 38.6014 132.853 37.3726C132.853 36.1437 132.45 35.1305 131.645 34.333C130.839 33.5273 129.813 33.1245 128.568 33.1245C127.323 33.1245 126.298 33.5273 125.492 34.333C124.695 35.1305 124.296 36.1437 124.296 37.3726C124.296 38.6095 124.695 39.6227 125.492 40.4121C126.29 41.2015 127.315 41.5962 128.568 41.5962ZM134.977 37.3726C134.977 39.1141 134.383 40.5382 133.195 41.645C132.007 42.7518 130.465 43.3052 128.568 43.3052C126.68 43.3052 125.142 42.7518 123.954 41.645C122.766 40.5382 122.172 39.1141 122.172 37.3726C122.172 35.631 122.766 34.2109 123.954 33.1123C125.142 32.0055 126.68 31.4521 128.568 31.4521C130.456 31.4521 131.994 32.0055 133.183 33.1123C134.379 34.2191 134.977 35.6392 134.977 37.3726ZM142.543 38.4956C142.543 39.521 142.759 40.2697 143.19 40.7417C143.622 41.2137 144.305 41.4497 145.241 41.4497C146.128 41.4497 146.885 41.1689 147.512 40.6074C148.146 40.0459 148.464 39.342 148.464 38.4956V33.4541H146.792C146.474 33.4541 146.242 33.389 146.096 33.2588C145.957 33.1204 145.888 32.9089 145.888 32.624C145.888 32.3148 145.965 32.0869 146.12 31.9404C146.275 31.7939 146.523 31.7207 146.865 31.7207H149.465C149.774 31.7207 149.99 31.7899 150.112 31.9282C150.242 32.0584 150.307 32.384 150.307 32.9048V41.2788H150.869C151.267 41.2788 151.552 41.3439 151.723 41.4741C151.902 41.6043 151.992 41.82 151.992 42.1211C151.992 42.4141 151.906 42.6338 151.735 42.7803C151.573 42.9268 151.333 43 151.015 43H149.16C148.94 43 148.769 42.9552 148.647 42.8657C148.525 42.7762 148.464 42.6541 148.464 42.4995V41.6694C147.683 42.2716 147.011 42.6867 146.45 42.9146C145.896 43.1343 145.31 43.2441 144.692 43.2441C143.349 43.2441 142.34 42.8901 141.665 42.1821C140.997 41.466 140.664 40.3877 140.664 38.9473V33.4541H140.407C139.854 33.4541 139.475 33.389 139.272 33.2588C139.069 33.1286 138.967 32.9007 138.967 32.5752C138.967 32.2904 139.044 32.0788 139.199 31.9404C139.361 31.7939 139.61 31.7207 139.943 31.7207H141.787C142.071 31.7207 142.267 31.7777 142.373 31.8916C142.486 32.0055 142.543 32.2578 142.543 32.6484V38.4956ZM165.93 32.4043C166.329 32.4043 166.618 32.4735 166.797 32.6118C166.984 32.7502 167.078 32.9699 167.078 33.271C167.078 33.5558 166.992 33.7715 166.821 33.918C166.65 34.0563 166.394 34.1255 166.052 34.1255H161.108V38.2026C161.108 39.5373 161.279 40.4162 161.621 40.8394C161.971 41.2625 162.565 41.4741 163.403 41.4741C164.144 41.4741 165.031 41.2585 166.064 40.8271C167.098 40.3958 167.737 40.1802 167.981 40.1802C168.209 40.1802 168.4 40.2616 168.555 40.4243C168.717 40.5871 168.799 40.7865 168.799 41.0225C168.799 41.291 168.697 41.527 168.494 41.7305C168.298 41.9258 167.961 42.117 167.48 42.3042C166.683 42.6216 165.963 42.8535 165.32 43C164.685 43.1465 164.087 43.2197 163.525 43.2197C162.573 43.2197 161.772 43.0692 161.121 42.7681C160.478 42.4588 159.998 42.0031 159.68 41.4009C159.517 41.116 159.399 40.7783 159.326 40.3877C159.261 39.9971 159.229 39.3949 159.229 38.5811V38.2026V34.1255H157.153C156.812 34.1255 156.563 34.0604 156.409 33.9302C156.254 33.7918 156.177 33.5721 156.177 33.271C156.177 32.9373 156.283 32.7095 156.494 32.5874C156.706 32.4653 157.157 32.4043 157.849 32.4043H159.229V29.9019V29.2549C159.229 28.9049 159.302 28.6486 159.448 28.4858C159.603 28.3149 159.839 28.2295 160.156 28.2295C160.514 28.2295 160.763 28.3312 160.901 28.5347C161.039 28.7381 161.108 29.202 161.108 29.9263V32.4043H165.93Z" fill="black"/>
</g>
<defs>
<filter id="filter0_d_454_111" x="0" y="0" width="207" height="85" filterUnits="userSpaceOnUse" color-interpolation-filters="sRGB">
<feFlood flood-opacity="0" result="BackgroundImageFix"/>
<feColorMatrix in="SourceAlpha" type="matrix" values="0 0 0 0 0 0 0 0 0 0 0 0 0 0 0 0 0 0 127 0" result="hardAlpha"/>
<feOffset dy="4"/>
<feGaussianBlur stdDeviation="2"/>
<feComposite in2="hardAlpha" operator="out"/>
<feColorMatrix type="matrix" values="0 0 0 0 0 0 0 0 0 0 0 0 0 0 0 0 0 0 0.25 0"/>
<feBlend mode="normal" in2="BackgroundImageFix" result="effect1_dropShadow_454_111"/>
<feBlend mode="normal" in="SourceGraphic" in2="effect1_dropShadow_454_111" result="shape"/>
</filter>
</defs>
</svg>
