<svg width="284" height="104" viewBox="0 0 284 104" fill="none" xmlns="http://www.w3.org/2000/svg">
<g filter="url(#filter0_d_9_59)">
<rect x="4" y="3" width="276" height="88" fill="#D9D9D9"/>
<path fill-rule="evenodd" clip-rule="evenodd" d="M276 6V93H11V86.7857H269.117V6H276Z" fill="#A8A8A8"/>
<path fill-rule="evenodd" clip-rule="evenodd" d="M4 93V1.62125e-06H276V6.2H10.8861V93H4Z" fill="#F9F9F9"/>
<path fill-rule="evenodd" clip-rule="evenodd" d="M276.55 3.09677H7.45V92.9032H276.55V3.09677ZM4 0V96H280V0H4Z" fill="black"/>
<path d="M94.7168 52.4873C94.668 52.9268 94.5557 53.2295 94.3799 53.3955C94.2041 53.5713 93.9258 53.6592 93.5449 53.6592C93.1348 53.6592 92.8271 53.5371 92.6221 53.293C92.4268 53.0586 92.3145 52.6729 92.2852 52.1357L92.0947 48.7373V48.4736C92.0947 48.0049 92.1826 47.6729 92.3584 47.4775C92.5439 47.2822 92.8467 47.1846 93.2666 47.1846C93.8525 47.1846 94.2725 47.6045 94.5264 48.4443C94.6436 48.8643 94.7559 49.1816 94.8633 49.3965C95.2051 50.0801 95.7422 50.6074 96.4746 50.9785C97.2168 51.3496 98.1006 51.5352 99.126 51.5352C100.386 51.5352 101.406 51.2373 102.188 50.6416C102.979 50.0459 103.374 49.2842 103.374 48.3564C103.374 47.585 103.13 46.9648 102.642 46.4961C102.163 46.0273 101.46 45.7246 100.532 45.5879L98.3643 45.2949C96.3428 45.0117 94.8682 44.4795 93.9404 43.6982C93.0127 42.917 92.5488 41.8184 92.5488 40.4023C92.5488 38.9082 93.1641 37.6533 94.3945 36.6377C95.6348 35.6221 97.1777 35.1143 99.0234 35.1143C99.5605 35.1143 100.127 35.1875 100.723 35.334C101.318 35.4707 101.992 35.6904 102.744 35.9932C102.764 35.71 102.842 35.5146 102.979 35.4072C103.115 35.2998 103.35 35.2461 103.682 35.2461C104.111 35.2461 104.409 35.3096 104.575 35.4365C104.741 35.5635 104.844 35.8662 104.883 36.3447L105.088 39.4062V39.5527C105.088 39.8945 104.99 40.1631 104.795 40.3584C104.6 40.5439 104.326 40.6367 103.975 40.6367C103.457 40.6367 103.057 40.2754 102.773 39.5527C102.637 39.1426 102.5 38.835 102.363 38.6299C102.041 38.1416 101.577 37.7656 100.972 37.502C100.366 37.2383 99.6777 37.1064 98.9062 37.1064C97.7246 37.1064 96.7627 37.3994 96.0205 37.9854C95.2881 38.5713 94.9219 39.3379 94.9219 40.2852C94.9219 41.0273 95.1953 41.6133 95.7422 42.043C96.2988 42.4727 97.1436 42.7656 98.2764 42.9219L100.62 43.2148C102.319 43.4395 103.599 43.9619 104.458 44.7822C105.317 45.5928 105.747 46.6914 105.747 48.0781C105.747 49.7188 105.137 51.0371 103.916 52.0332C102.695 53.0195 101.064 53.5127 99.0234 53.5127C98.3203 53.5127 97.6221 53.4297 96.9287 53.2637C96.2354 53.0977 95.498 52.8389 94.7168 52.4873ZM114.461 46.877C114.539 48.2832 115.012 49.3721 115.881 50.1436C116.76 50.9053 117.957 51.2861 119.47 51.2861C120.613 51.2861 121.858 50.9834 123.206 50.3779C124.553 49.7627 125.369 49.4551 125.652 49.4551C125.945 49.4551 126.189 49.5479 126.384 49.7334C126.58 49.9189 126.677 50.1484 126.677 50.4219C126.677 50.7051 126.575 50.9639 126.37 51.1982C126.165 51.4326 125.837 51.6621 125.388 51.8867C124.412 52.3652 123.401 52.7314 122.356 52.9854C121.321 53.2393 120.291 53.3662 119.265 53.3662C117.039 53.3662 115.256 52.7266 113.919 51.4473C112.581 50.1582 111.912 48.4541 111.912 46.335C111.912 44.1768 112.62 42.4287 114.036 41.0908C115.452 39.7529 117.297 39.084 119.573 39.084C121.633 39.084 123.342 39.709 124.7 40.959C126.057 42.209 126.736 43.7227 126.736 45.5C126.736 46.0469 126.619 46.4131 126.384 46.5986C126.16 46.7842 125.54 46.877 124.524 46.877H124.304H114.461ZM114.534 44.958H124.07C123.923 43.7959 123.435 42.8633 122.605 42.1602C121.785 41.4473 120.774 41.0908 119.573 41.0908C118.274 41.0908 117.18 41.4326 116.292 42.1162C115.403 42.7998 114.817 43.7471 114.534 44.958ZM143.828 40.2852C144.307 40.2852 144.654 40.3682 144.868 40.5342C145.093 40.7002 145.205 40.9639 145.205 41.3252C145.205 41.667 145.103 41.9258 144.898 42.1016C144.693 42.2676 144.385 42.3506 143.975 42.3506H138.042V47.2432C138.042 48.8447 138.247 49.8994 138.657 50.4072C139.077 50.915 139.79 51.1689 140.796 51.1689C141.685 51.1689 142.749 50.9102 143.989 50.3926C145.23 49.875 145.996 49.6162 146.289 49.6162C146.563 49.6162 146.792 49.7139 146.978 49.9092C147.173 50.1045 147.271 50.3438 147.271 50.627C147.271 50.9492 147.149 51.2324 146.904 51.4766C146.67 51.7109 146.265 51.9404 145.689 52.165C144.732 52.5459 143.867 52.8242 143.096 53C142.334 53.1758 141.616 53.2637 140.943 53.2637C139.8 53.2637 138.838 53.083 138.057 52.7217C137.285 52.3506 136.709 51.8037 136.328 51.0811C136.133 50.7393 135.991 50.334 135.904 49.8652C135.825 49.3965 135.786 48.6738 135.786 47.6973V47.2432V42.3506H133.296C132.886 42.3506 132.588 42.2725 132.403 42.1162C132.217 41.9502 132.124 41.6865 132.124 41.3252C132.124 40.9248 132.251 40.6514 132.505 40.5049C132.759 40.3584 133.301 40.2852 134.131 40.2852H135.786V37.2822V36.5059C135.786 36.0859 135.874 35.7783 136.05 35.583C136.236 35.3779 136.519 35.2754 136.9 35.2754C137.329 35.2754 137.627 35.3975 137.793 35.6416C137.959 35.8857 138.042 36.4424 138.042 37.3115V40.2852H143.828ZM164.246 40.2852C164.724 40.2852 165.071 40.3682 165.286 40.5342C165.511 40.7002 165.623 40.9639 165.623 41.3252C165.623 41.667 165.52 41.9258 165.315 42.1016C165.11 42.2676 164.803 42.3506 164.392 42.3506H158.46V47.2432C158.46 48.8447 158.665 49.8994 159.075 50.4072C159.495 50.915 160.208 51.1689 161.214 51.1689C162.102 51.1689 163.167 50.9102 164.407 50.3926C165.647 49.875 166.414 49.6162 166.707 49.6162C166.98 49.6162 167.21 49.7139 167.395 49.9092C167.591 50.1045 167.688 50.3438 167.688 50.627C167.688 50.9492 167.566 51.2324 167.322 51.4766C167.088 51.7109 166.682 51.9404 166.106 52.165C165.149 52.5459 164.285 52.8242 163.513 53C162.752 53.1758 162.034 53.2637 161.36 53.2637C160.218 53.2637 159.256 53.083 158.474 52.7217C157.703 52.3506 157.127 51.8037 156.746 51.0811C156.551 50.7393 156.409 50.334 156.321 49.8652C156.243 49.3965 156.204 48.6738 156.204 47.6973V47.2432V42.3506H153.714C153.304 42.3506 153.006 42.2725 152.82 42.1162C152.635 41.9502 152.542 41.6865 152.542 41.3252C152.542 40.9248 152.669 40.6514 152.923 40.5049C153.177 40.3584 153.719 40.2852 154.549 40.2852H156.204V37.2822V36.5059C156.204 36.0859 156.292 35.7783 156.468 35.583C156.653 35.3779 156.936 35.2754 157.317 35.2754C157.747 35.2754 158.045 35.3975 158.211 35.6416C158.377 35.8857 158.46 36.4424 158.46 37.3115V40.2852H164.246ZM179.317 35.2461C179.317 34.1914 179.41 33.5273 179.595 33.2539C179.79 32.9805 180.201 32.8438 180.826 32.8438C181.431 32.8438 181.831 32.9609 182.027 33.1953C182.222 33.4199 182.32 33.9619 182.32 34.8213C182.32 35.6611 182.227 36.1836 182.041 36.3887C181.866 36.584 181.46 36.6816 180.826 36.6816C180.201 36.6816 179.79 36.5889 179.595 36.4033C179.41 36.2178 179.317 35.832 179.317 35.2461ZM182.027 50.9346H186.729C187.11 50.9346 187.388 51.0176 187.564 51.1836C187.749 51.3398 187.842 51.5938 187.842 51.9453C187.842 52.3457 187.754 52.624 187.579 52.7803C187.412 52.9268 187.1 53 186.641 53H175.274C174.883 53 174.59 52.9121 174.395 52.7363C174.2 52.5605 174.102 52.2969 174.102 51.9453C174.102 51.6035 174.204 51.3496 174.41 51.1836C174.615 51.0176 174.922 50.9346 175.332 50.9346H179.8V41.5449H176.944C176.543 41.5449 176.236 41.457 176.021 41.2812C175.816 41.0957 175.713 40.832 175.713 40.4902C175.713 40.1484 175.811 39.8945 176.006 39.7285C176.202 39.5527 176.495 39.4648 176.885 39.4648H181.177C181.441 39.4648 181.646 39.5186 181.792 39.626C181.949 39.7334 182.027 39.8799 182.027 40.0654V50.9346ZM195.633 50.9346V41.5449H195.354C194.69 41.5449 194.231 41.4668 193.978 41.3105C193.733 41.1543 193.611 40.8809 193.611 40.4902C193.611 40.1289 193.714 39.8701 193.919 39.7139C194.124 39.5479 194.456 39.4648 194.915 39.4648H195.604H197.01C197.273 39.4648 197.479 39.5186 197.625 39.626C197.771 39.7334 197.845 39.8799 197.845 40.0654V41.0615C198.558 40.3975 199.261 39.9092 199.954 39.5967C200.657 39.2744 201.385 39.1133 202.137 39.1133C203.611 39.1133 204.769 39.5723 205.608 40.4902C206.458 41.4082 206.883 42.6777 206.883 44.2988V50.9346H207.571C208.06 50.9346 208.411 51.0176 208.626 51.1836C208.841 51.3398 208.948 51.5938 208.948 51.9453C208.948 52.3262 208.831 52.5996 208.597 52.7656C208.372 52.9219 207.967 53 207.381 53H204.144C203.519 53 203.118 52.9268 202.942 52.7803C202.767 52.6338 202.679 52.3555 202.679 51.9453C202.679 51.5645 202.781 51.3008 202.986 51.1543C203.191 51.0078 203.577 50.9346 204.144 50.9346H204.656V44.8408C204.656 43.6982 204.397 42.8291 203.88 42.2334C203.362 41.6279 202.61 41.3252 201.624 41.3252C200.628 41.3252 199.749 41.6621 198.987 42.3359C198.226 43.0098 197.845 43.8447 197.845 44.8408V50.9346H198.357C198.943 50.9346 199.339 51.0078 199.544 51.1543C199.749 51.3008 199.852 51.5645 199.852 51.9453C199.852 52.3555 199.764 52.6338 199.588 52.7803C199.412 52.9268 198.982 53 198.299 53H195.633H194.842C194.441 53 194.139 52.917 193.934 52.751C193.738 52.5752 193.641 52.3066 193.641 51.9453C193.641 51.5547 193.753 51.291 193.978 51.1543C194.212 51.0078 194.661 50.9346 195.325 50.9346H195.633ZM221.089 41.6328C219.81 41.6328 218.765 42.0283 217.955 42.8193C217.144 43.6104 216.739 44.6357 216.739 45.8955C216.739 47.1357 217.144 48.1562 217.955 48.957C218.765 49.748 219.81 50.1436 221.089 50.1436C222.359 50.1436 223.399 49.748 224.21 48.957C225.03 48.1562 225.44 47.1357 225.44 45.8955C225.44 44.6553 225.03 43.6348 224.21 42.834C223.399 42.0332 222.359 41.6328 221.089 41.6328ZM227.447 52.2236C227.447 53.5908 227.379 54.5576 227.242 55.124C227.105 55.7002 226.871 56.2031 226.539 56.6328C225.992 57.3555 225.225 57.9023 224.239 58.2734C223.253 58.6543 222.09 58.8447 220.753 58.8447C219.639 58.8447 218.824 58.7373 218.306 58.5225C217.798 58.3076 217.545 57.9658 217.545 57.4971C217.545 57.1943 217.667 56.9258 217.911 56.6914C218.165 56.4668 218.463 56.3545 218.804 56.3545C219.068 56.3545 219.473 56.3887 220.02 56.457C220.567 56.5352 220.982 56.5742 221.265 56.5742C222.711 56.5742 223.736 56.2422 224.341 55.5781C224.947 54.9141 225.25 53.7764 225.25 52.165V50.3926C224.654 51.0859 223.995 51.5938 223.272 51.916C222.549 52.2383 221.719 52.3994 220.782 52.3994C218.956 52.3994 217.442 51.7939 216.241 50.583C215.049 49.3623 214.454 47.8193 214.454 45.9541C214.454 44.0791 215.069 42.5264 216.299 41.2959C217.53 40.0557 219.053 39.4355 220.87 39.4355C221.622 39.4355 222.354 39.5771 223.067 39.8604C223.79 40.1338 224.517 40.5537 225.25 41.1201V40.0654C225.25 39.8604 225.313 39.709 225.44 39.6113C225.577 39.5137 225.787 39.4648 226.07 39.4648H228.282C228.672 39.4648 228.965 39.5527 229.161 39.7285C229.356 39.8945 229.454 40.1484 229.454 40.4902C229.454 40.8809 229.332 41.1543 229.088 41.3105C228.843 41.4668 228.384 41.5449 227.711 41.5449H227.447V52.2236ZM235.53 51.9453V49.3379C235.53 48.9082 235.609 48.6006 235.765 48.415C235.931 48.2295 236.195 48.1367 236.556 48.1367C236.956 48.1367 237.274 48.4102 237.508 48.957C237.664 49.2891 237.806 49.5381 237.933 49.7041C238.343 50.2314 238.948 50.6562 239.749 50.9785C240.55 51.291 241.434 51.4473 242.401 51.4473C243.436 51.4473 244.266 51.2373 244.891 50.8174C245.516 50.3975 245.828 49.8457 245.828 49.1621C245.828 48.4688 245.574 47.9756 245.067 47.6826C244.569 47.3896 243.709 47.2432 242.488 47.2432H241.683C239.691 47.2432 238.172 46.8965 237.127 46.2031C236.082 45.5098 235.56 44.5039 235.56 43.1855C235.56 41.8965 236.068 40.8955 237.083 40.1826C238.109 39.4697 239.544 39.1133 241.39 39.1133C242.142 39.1133 242.908 39.2207 243.69 39.4355C244.471 39.6406 244.881 39.7432 244.92 39.7432C245.028 39.7432 245.233 39.6504 245.535 39.4648C245.838 39.2695 246.136 39.1719 246.429 39.1719C246.761 39.1719 247.005 39.2939 247.161 39.5381C247.327 39.7822 247.41 40.1484 247.41 40.6367V42.3506C247.41 42.8682 247.332 43.2441 247.176 43.4785C247.02 43.7031 246.771 43.8154 246.429 43.8154C246.136 43.8154 245.775 43.5664 245.345 43.0684C245.042 42.7266 244.793 42.4678 244.598 42.292C244.08 41.8135 243.529 41.4717 242.943 41.2666C242.357 41.0518 241.668 40.9443 240.877 40.9443C239.959 40.9443 239.217 41.1494 238.651 41.5596C238.094 41.96 237.816 42.4727 237.816 43.0977C237.816 43.7129 238.104 44.1523 238.68 44.416C239.256 44.6797 240.496 44.8311 242.401 44.8701C244.432 44.9189 245.916 45.2754 246.854 45.9395C247.791 46.5938 248.26 47.6094 248.26 48.9863C248.26 50.3047 247.742 51.3594 246.707 52.1504C245.672 52.9414 244.276 53.3369 242.518 53.3369C241.961 53.3369 241.341 53.2832 240.657 53.1758C239.974 53.0781 239.114 52.9072 238.079 52.6631C237.738 52.8877 237.445 53.0537 237.2 53.1611C236.956 53.2783 236.751 53.3369 236.585 53.3369C236.243 53.3369 235.98 53.2197 235.794 52.9854C235.618 52.7412 235.53 52.3945 235.53 51.9453Z" fill="black"/>
<path fill-rule="evenodd" clip-rule="evenodd" d="M68.943 46.5C68.943 47.3359 68.8692 48.1225 68.7709 48.9092L73.958 52.9654C74.425 53.3342 74.548 53.9979 74.253 54.5388L69.3363 63.0446C69.115 63.4379 68.6971 63.6592 68.2792 63.6592C68.1317 63.6592 67.9842 63.6346 67.8367 63.5854L61.7155 61.1271C60.4371 62.0859 59.0605 62.9217 57.5609 63.5363L56.6267 70.0509C56.553 70.6409 56.0367 71.0834 55.4221 71.0834H45.5888C44.9742 71.0834 44.458 70.6409 44.3842 70.0509L43.45 63.5363C41.9505 62.9217 40.5738 62.1104 39.2955 61.1271L33.1742 63.5854C33.0513 63.6346 32.9038 63.6592 32.7563 63.6592C32.3138 63.6592 31.8959 63.4379 31.6746 63.0446L26.758 54.5388C26.463 53.9979 26.5859 53.3342 27.053 52.9654L32.24 48.9092C32.1417 48.1225 32.068 47.3113 32.068 46.5C32.068 45.6888 32.1417 44.8775 32.24 44.0909L27.053 40.0346C26.5859 39.6659 26.4384 39.0021 26.758 38.4613L31.6746 29.9554C31.8959 29.5621 32.3138 29.3409 32.7317 29.3409C32.8792 29.3409 33.0267 29.3654 33.1742 29.4146L39.2955 31.8729C40.5738 30.9142 41.9505 30.0784 43.45 29.4638L44.3842 22.9492C44.458 22.3592 44.9742 21.9167 45.5888 21.9167H55.4221C56.0367 21.9167 56.553 22.3592 56.6267 22.9492L57.5609 29.4638C59.0605 30.0784 60.4371 30.8896 61.7155 31.8729L67.8367 29.4146C67.9596 29.3654 68.1071 29.3409 68.2546 29.3409C68.6971 29.3409 69.115 29.5621 69.3363 29.9554L74.253 38.4613C74.548 39.0021 74.425 39.6659 73.958 40.0346L68.7709 44.0909C68.8692 44.8775 68.943 45.6642 68.943 46.5ZM64.0263 46.5C64.0263 45.9838 64.0017 45.4675 63.9034 44.7054L63.5592 41.9275L65.7471 40.2067L68.3776 38.1171L66.6567 35.1425L63.5346 36.3963L60.9288 37.4534L58.6917 35.7325C57.7084 34.995 56.725 34.4296 55.668 33.9871L53.0621 32.93L52.6688 30.1521L52.2017 26.8334H48.7846L48.293 30.1521L47.8996 32.93L45.2938 33.9871C44.2859 34.405 43.278 34.995 42.2209 35.7817L40.0084 37.4534L37.4517 36.4209L34.3296 35.1671L32.6088 38.1417L35.2638 40.2067L37.4517 41.9275L37.1075 44.7054C37.0338 45.4429 36.9846 46.0084 36.9846 46.5C36.9846 46.9917 37.0338 47.5571 37.1075 48.3192L37.4517 51.0971L35.2638 52.8179L32.6088 54.8829L34.3296 57.8575L37.4517 56.6038L40.0575 55.5467L42.2946 57.2675C43.278 58.005 44.2613 58.5704 45.3184 59.0129L47.9242 60.07L48.3175 62.8479L48.7846 66.1667H52.2263L52.718 62.8479L53.1113 60.07L55.7171 59.0129C56.725 58.595 57.733 58.005 58.7901 57.2184L61.0026 55.5467L63.5592 56.5792L66.6813 57.8329L68.4021 54.8584L65.7471 52.7934L63.5592 51.0725L63.9034 48.2946C63.9771 47.5571 64.0263 47.0163 64.0263 46.5ZM50.5055 36.6667C45.0725 36.6667 40.6721 41.0671 40.6721 46.5C40.6721 51.9329 45.0725 56.3334 50.5055 56.3334C55.9384 56.3334 60.3388 51.9329 60.3388 46.5C60.3388 41.0671 55.9384 36.6667 50.5055 36.6667ZM45.5888 46.5C45.5888 49.2042 47.8013 51.4167 50.5055 51.4167C53.2096 51.4167 55.4221 49.2042 55.4221 46.5C55.4221 43.7959 53.2096 41.5834 50.5055 41.5834C47.8013 41.5834 45.5888 43.7959 45.5888 46.5Z" fill="black" fill-opacity="0.54"/>
</g>
<defs>
<filter id="filter0_d_9_59" x="0" y="0" width="284" height="104" filterUnits="userSpaceOnUse" color-interpolation-filters="sRGB">
<feFlood flood-opacity="0" result="BackgroundImageFix"/>
<feColorMatrix in="SourceAlpha" type="matrix" values="0 0 0 0 0 0 0 0 0 0 0 0 0 0 0 0 0 0 127 0" result="hardAlpha"/>
<feOffset dy="4"/>
<feGaussianBlur stdDeviation="2"/>
<feComposite in2="hardAlpha" operator="out"/>
<feColorMatrix type="matrix" values="0 0 0 0 0 0 0 0 0 0 0 0 0 0 0 0 0 0 0.25 0"/>
<feBlend mode="normal" in2="BackgroundImageFix" result="effect1_dropShadow_9_59"/>
<feBlend mode="normal" in="SourceGraphic" in2="effect1_dropShadow_9_59" result="shape"/>
</filter>
</defs>
</svg>
