<svg width="256" height="104" viewBox="0 0 256 104" fill="none" xmlns="http://www.w3.org/2000/svg">
<g filter="url(#filter0_d_5_29)">
<rect x="4" y="3.20001" width="248" height="88" fill="#A3A3A3"/>
<path fill-rule="evenodd" clip-rule="evenodd" d="M248.8 6.40002V92.8H10.4V86.6286H242.608V6.40002H248.8Z" fill="#A8A8A8"/>
<path fill-rule="evenodd" clip-rule="evenodd" d="M3.99999 92.8V-1.07892e-05H248.8V6.18666H10.1975V92.8H3.99999Z" fill="#F9F9F9"/>
<path fill-rule="evenodd" clip-rule="evenodd" d="M248.9 3.09677H7.1V92.9032H248.9V3.09677ZM4 0V96H252V0H4Z" fill="black"/>
<path d="M59.6074 52.9453V50.3379C59.6074 49.9082 59.6855 49.6006 59.8418 49.415C60.0078 49.2295 60.2715 49.1367 60.6328 49.1367C61.0332 49.1367 61.3506 49.4102 61.585 49.957C61.7412 50.2891 61.8828 50.5381 62.0098 50.7041C62.4199 51.2314 63.0254 51.6562 63.8262 51.9785C64.627 52.291 65.5107 52.4473 66.4775 52.4473C67.5127 52.4473 68.3428 52.2373 68.9678 51.8174C69.5928 51.3975 69.9053 50.8457 69.9053 50.1621C69.9053 49.4688 69.6514 48.9756 69.1436 48.6826C68.6455 48.3896 67.7861 48.2432 66.5654 48.2432H65.7598C63.7676 48.2432 62.249 47.8965 61.2041 47.2031C60.1592 46.5098 59.6367 45.5039 59.6367 44.1855C59.6367 42.8965 60.1445 41.8955 61.1602 41.1826C62.1855 40.4697 63.6211 40.1133 65.4668 40.1133C66.2188 40.1133 66.9854 40.2207 67.7666 40.4355C68.5479 40.6406 68.958 40.7432 68.9971 40.7432C69.1045 40.7432 69.3096 40.6504 69.6123 40.4648C69.915 40.2695 70.2129 40.1719 70.5059 40.1719C70.8379 40.1719 71.082 40.2939 71.2383 40.5381C71.4043 40.7822 71.4873 41.1484 71.4873 41.6367V43.3506C71.4873 43.8682 71.4092 44.2441 71.2529 44.4785C71.0967 44.7031 70.8477 44.8154 70.5059 44.8154C70.2129 44.8154 69.8516 44.5664 69.4219 44.0684C69.1191 43.7266 68.8701 43.4678 68.6748 43.292C68.1572 42.8135 67.6055 42.4717 67.0195 42.2666C66.4336 42.0518 65.7451 41.9443 64.9541 41.9443C64.0361 41.9443 63.2939 42.1494 62.7275 42.5596C62.1709 42.96 61.8926 43.4727 61.8926 44.0977C61.8926 44.7129 62.1807 45.1523 62.7568 45.416C63.333 45.6797 64.5732 45.8311 66.4775 45.8701C68.5088 45.9189 69.9932 46.2754 70.9307 46.9395C71.8682 47.5938 72.3369 48.6094 72.3369 49.9863C72.3369 51.3047 71.8193 52.3594 70.7842 53.1504C69.749 53.9414 68.3525 54.3369 66.5947 54.3369C66.0381 54.3369 65.418 54.2832 64.7344 54.1758C64.0508 54.0781 63.1914 53.9072 62.1562 53.6631C61.8145 53.8877 61.5215 54.0537 61.2773 54.1611C61.0332 54.2783 60.8281 54.3369 60.6621 54.3369C60.3203 54.3369 60.0566 54.2197 59.8711 53.9854C59.6953 53.7412 59.6074 53.3945 59.6074 52.9453ZM85.0641 36.2461C85.0641 35.1914 85.1568 34.5273 85.3424 34.2539C85.5377 33.9805 85.9479 33.8438 86.5729 33.8438C87.1783 33.8438 87.5787 33.9609 87.774 34.1953C87.9693 34.4199 88.067 34.9619 88.067 35.8213C88.067 36.6611 87.9742 37.1836 87.7887 37.3887C87.6129 37.584 87.2076 37.6816 86.5729 37.6816C85.9479 37.6816 85.5377 37.5889 85.3424 37.4033C85.1568 37.2178 85.0641 36.832 85.0641 36.2461ZM87.774 51.9346H92.4762C92.857 51.9346 93.1354 52.0176 93.3111 52.1836C93.4967 52.3398 93.5895 52.5938 93.5895 52.9453C93.5895 53.3457 93.5016 53.624 93.3258 53.7803C93.1598 53.9268 92.8473 54 92.3883 54H81.0211C80.6305 54 80.3375 53.9121 80.1422 53.7363C79.9469 53.5605 79.8492 53.2969 79.8492 52.9453C79.8492 52.6035 79.9518 52.3496 80.1568 52.1836C80.3619 52.0176 80.6695 51.9346 81.0797 51.9346H85.5475V42.5449H82.691C82.2906 42.5449 81.983 42.457 81.7682 42.2812C81.5631 42.0957 81.4605 41.832 81.4605 41.4902C81.4605 41.1484 81.5582 40.8945 81.7535 40.7285C81.9488 40.5527 82.2418 40.4648 82.6324 40.4648H86.9244C87.1881 40.4648 87.3932 40.5186 87.5396 40.626C87.6959 40.7334 87.774 40.8799 87.774 41.0654V51.9346ZM106.419 42.6328C105.14 42.6328 104.095 43.0283 103.284 43.8193C102.474 44.6104 102.069 45.6357 102.069 46.8955C102.069 48.1357 102.474 49.1562 103.284 49.957C104.095 50.748 105.14 51.1436 106.419 51.1436C107.689 51.1436 108.729 50.748 109.539 49.957C110.36 49.1562 110.77 48.1357 110.77 46.8955C110.77 45.6553 110.36 44.6348 109.539 43.834C108.729 43.0332 107.689 42.6328 106.419 42.6328ZM112.777 53.2236C112.777 54.5908 112.708 55.5576 112.571 56.124C112.435 56.7002 112.2 57.2031 111.868 57.6328C111.321 58.3555 110.555 58.9023 109.569 59.2734C108.582 59.6543 107.42 59.8447 106.082 59.8447C104.969 59.8447 104.154 59.7373 103.636 59.5225C103.128 59.3076 102.874 58.9658 102.874 58.4971C102.874 58.1943 102.996 57.9258 103.24 57.6914C103.494 57.4668 103.792 57.3545 104.134 57.3545C104.398 57.3545 104.803 57.3887 105.35 57.457C105.897 57.5352 106.312 57.5742 106.595 57.5742C108.04 57.5742 109.066 57.2422 109.671 56.5781C110.277 55.9141 110.579 54.7764 110.579 53.165V51.3926C109.984 52.0859 109.324 52.5938 108.602 52.916C107.879 53.2383 107.049 53.3994 106.112 53.3994C104.285 53.3994 102.772 52.7939 101.571 51.583C100.379 50.3623 99.7834 48.8193 99.7834 46.9541C99.7834 45.0791 100.399 43.5264 101.629 42.2959C102.86 41.0557 104.383 40.4355 106.199 40.4355C106.951 40.4355 107.684 40.5771 108.397 40.8604C109.119 41.1338 109.847 41.5537 110.579 42.1201V41.0654C110.579 40.8604 110.643 40.709 110.77 40.6113C110.906 40.5137 111.116 40.4648 111.4 40.4648H113.612C114.002 40.4648 114.295 40.5527 114.49 40.7285C114.686 40.8945 114.783 41.1484 114.783 41.4902C114.783 41.8809 114.661 42.1543 114.417 42.3105C114.173 42.4668 113.714 42.5449 113.04 42.5449H112.777V53.2236ZM121.798 51.9346V42.5449H121.519C120.855 42.5449 120.396 42.4668 120.142 42.3105C119.898 42.1543 119.776 41.8809 119.776 41.4902C119.776 41.1289 119.879 40.8701 120.084 40.7139C120.289 40.5479 120.621 40.4648 121.08 40.4648H121.768H123.175C123.438 40.4648 123.643 40.5186 123.79 40.626C123.936 40.7334 124.01 40.8799 124.01 41.0654V42.0615C124.722 41.3975 125.426 40.9092 126.119 40.5967C126.822 40.2744 127.55 40.1133 128.302 40.1133C129.776 40.1133 130.933 40.5723 131.773 41.4902C132.623 42.4082 133.048 43.6777 133.048 45.2988V51.9346H133.736C134.224 51.9346 134.576 52.0176 134.791 52.1836C135.006 52.3398 135.113 52.5938 135.113 52.9453C135.113 53.3262 134.996 53.5996 134.762 53.7656C134.537 53.9219 134.132 54 133.546 54H130.308C129.683 54 129.283 53.9268 129.107 53.7803C128.931 53.6338 128.844 53.3555 128.844 52.9453C128.844 52.5645 128.946 52.3008 129.151 52.1543C129.356 52.0078 129.742 51.9346 130.308 51.9346H130.821V45.8408C130.821 44.6982 130.562 43.8291 130.045 43.2334C129.527 42.6279 128.775 42.3252 127.789 42.3252C126.793 42.3252 125.914 42.6621 125.152 43.3359C124.39 44.0098 124.01 44.8447 124.01 45.8408V51.9346H124.522C125.108 51.9346 125.504 52.0078 125.709 52.1543C125.914 52.3008 126.016 52.5645 126.016 52.9453C126.016 53.3555 125.929 53.6338 125.753 53.7803C125.577 53.9268 125.147 54 124.464 54H121.798H121.007C120.606 54 120.304 53.917 120.098 53.751C119.903 53.5752 119.805 53.3066 119.805 52.9453C119.805 52.5547 119.918 52.291 120.142 52.1543C120.377 52.0078 120.826 51.9346 121.49 51.9346H121.798ZM164.435 48.5947C164.435 49.8252 164.693 50.7236 165.211 51.29C165.729 51.8564 166.549 52.1396 167.672 52.1396C168.736 52.1396 169.645 51.8027 170.396 51.1289C171.158 50.4551 171.539 49.6104 171.539 48.5947V42.5449H169.532C169.151 42.5449 168.873 42.4668 168.697 42.3105C168.531 42.1445 168.448 41.8906 168.448 41.5488C168.448 41.1777 168.541 40.9043 168.727 40.7285C168.912 40.5527 169.21 40.4648 169.62 40.4648H172.74C173.111 40.4648 173.37 40.5479 173.517 40.7139C173.673 40.8701 173.751 41.2607 173.751 41.8857V51.9346H174.425C174.903 51.9346 175.245 52.0127 175.45 52.1689C175.665 52.3252 175.772 52.584 175.772 52.9453C175.772 53.2969 175.67 53.5605 175.465 53.7363C175.27 53.9121 174.981 54 174.601 54H172.374C172.11 54 171.905 53.9463 171.759 53.8389C171.612 53.7314 171.539 53.585 171.539 53.3994V52.4033C170.602 53.126 169.796 53.624 169.122 53.8975C168.458 54.1611 167.755 54.293 167.013 54.293C165.401 54.293 164.19 53.8682 163.38 53.0186C162.579 52.1592 162.179 50.8652 162.179 49.1367V42.5449H161.871C161.207 42.5449 160.753 42.4668 160.509 42.3105C160.265 42.1543 160.143 41.8809 160.143 41.4902C160.143 41.1484 160.235 40.8945 160.421 40.7285C160.616 40.5527 160.914 40.4648 161.314 40.4648H163.526C163.868 40.4648 164.103 40.5332 164.229 40.6699C164.366 40.8066 164.435 41.1094 164.435 41.5781V48.5947ZM184.72 57.75H188.236C188.607 57.75 188.885 57.8379 189.071 58.0137C189.256 58.1895 189.349 58.4531 189.349 58.8047C189.349 59.1855 189.256 59.4541 189.071 59.6104C188.895 59.7666 188.578 59.8447 188.119 59.8447H181.659C181.268 59.8447 180.97 59.7568 180.765 59.5811C180.57 59.4053 180.472 59.1465 180.472 58.8047C180.472 58.4141 180.594 58.1406 180.838 57.9844C181.092 57.8281 181.556 57.75 182.23 57.75H182.508V42.5449H182.23C181.556 42.5449 181.092 42.4668 180.838 42.3105C180.594 42.1543 180.472 41.8809 180.472 41.4902C180.472 41.1484 180.57 40.8945 180.765 40.7285C180.97 40.5527 181.268 40.4648 181.659 40.4648H183.885C184.178 40.4648 184.388 40.5137 184.515 40.6113C184.652 40.709 184.72 40.8604 184.72 41.0654V42.4863C185.384 41.8027 186.117 41.29 186.918 40.9482C187.728 40.6064 188.597 40.4355 189.525 40.4355C191.488 40.4355 193.129 41.0996 194.447 42.4277C195.765 43.7559 196.424 45.4209 196.424 47.4229C196.424 49.3467 195.799 50.9287 194.549 52.1689C193.299 53.4092 191.703 54.0293 189.759 54.0293C188.724 54.0293 187.772 53.8486 186.903 53.4873C186.034 53.1162 185.306 52.5889 184.72 51.9053V57.75ZM189.261 51.876C190.619 51.876 191.732 51.4512 192.601 50.6016C193.47 49.7422 193.905 48.6338 193.905 47.2764C193.905 45.9482 193.465 44.8545 192.587 43.9951C191.717 43.126 190.609 42.6914 189.261 42.6914C187.914 42.6914 186.81 43.1211 185.951 43.9805C185.091 44.8398 184.662 45.9385 184.662 47.2764C184.662 48.624 185.087 49.7275 185.936 50.5869C186.796 51.4463 187.904 51.876 189.261 51.876Z" fill="black"/>
</g>
<defs>
<filter id="filter0_d_5_29" x="-1.52588e-05" y="0" width="256" height="104" filterUnits="userSpaceOnUse" color-interpolation-filters="sRGB">
<feFlood flood-opacity="0" result="BackgroundImageFix"/>
<feColorMatrix in="SourceAlpha" type="matrix" values="0 0 0 0 0 0 0 0 0 0 0 0 0 0 0 0 0 0 127 0" result="hardAlpha"/>
<feOffset dy="4"/>
<feGaussianBlur stdDeviation="2"/>
<feComposite in2="hardAlpha" operator="out"/>
<feColorMatrix type="matrix" values="0 0 0 0 0 0 0 0 0 0 0 0 0 0 0 0 0 0 0.25 0"/>
<feBlend mode="normal" in2="BackgroundImageFix" result="effect1_dropShadow_5_29"/>
<feBlend mode="normal" in="SourceGraphic" in2="effect1_dropShadow_5_29" result="shape"/>
</filter>
</defs>
</svg>
