<svg width="271" height="222" viewBox="0 0 271 222" fill="none" xmlns="http://www.w3.org/2000/svg">
<path d="M10.4 52.7882L16.1 31.6882C16.4333 30.4216 16.9667 29.2549 17.7 28.1882C18.5 27.0549 19.4 26.0882 20.4 25.2882C21.4667 24.4216 22.6 23.7549 23.8 23.2882C25.0667 22.8216 26.3333 22.5882 27.6 22.5882H60.3C62.8333 22.5882 64.7333 23.4882 66 25.2882C67.2667 27.0882 67.5667 29.2216 66.9 31.6882L55 75.7882C54.8667 76.2549 54.9 76.6549 55.1 76.9882C55.3667 77.2549 55.7 77.3882 56.1 77.3882H64.3C64.7 77.3882 65.0667 77.2549 65.4 76.9882C65.8 76.7216 66.0667 76.3216 66.2 75.7882L78.1 31.6882C78.4333 30.4216 78.9667 29.2549 79.7 28.1882C80.5 27.0549 81.4 26.0882 82.4 25.2882C83.4667 24.4216 84.6 23.7549 85.8 23.2882C87.0667 22.8216 88.3333 22.5882 89.6 22.5882H122.3C124.833 22.5882 126.733 23.4882 128 25.2882C129.333 27.0216 129.667 29.1549 129 31.6882L123.3 52.7882C122.633 55.2549 121.533 57.6216 120 59.8882C118.533 62.1549 116.767 64.1549 114.7 65.8882L86.4 90.0882C84 92.1549 81.3667 93.7549 78.5 94.8882C75.7 96.0216 72.9 96.5882 70.1 96.5882H40.1C37.3 96.5882 34.7667 96.0216 32.5 94.8882C30.3 93.7549 28.5333 92.1549 27.2 90.0882L11.9 65.8882C10.7667 64.0882 10.0667 62.0549 9.8 59.7882C9.53333 57.5216 9.73333 55.1882 10.4 52.7882ZM13.7 64.5882L29.1 88.7882C30.3 90.6549 31.8667 92.0882 33.8 93.0882C35.8 94.0882 38.0667 94.5882 40.6 94.5882H70.6C73.1333 94.5882 75.6667 94.0882 78.2 93.0882C80.8 92.0882 83.1667 90.6549 85.3 88.7882L113.5 64.5882C117.433 61.2549 120.033 57.3216 121.3 52.7882L127 31.6882C127.533 29.7549 127.267 28.0882 126.2 26.6882C125.2 25.2882 123.733 24.5882 121.8 24.5882H89.1C88.1 24.5882 87.1 24.7882 86.1 25.1882C85.1667 25.5216 84.3 26.0216 83.5 26.6882C82.7 27.3549 82 28.1216 81.4 28.9882C80.8 29.7882 80.3667 30.6882 80.1 31.6882L68.2 75.7882C67.9333 76.7882 67.3667 77.6549 66.5 78.3882C65.7 79.0549 64.8 79.3882 63.8 79.3882H55.6C54.6667 79.3882 53.9333 79.0549 53.4 78.3882C52.8667 77.6549 52.7333 76.7882 53 75.7882L64.9 31.6882C65.4333 29.7549 65.2 28.0882 64.2 26.6882C63.2 25.2882 61.7333 24.5882 59.8 24.5882H27.1C26.1 24.5882 25.1 24.7882 24.1 25.1882C23.1667 25.5216 22.3 26.0216 21.5 26.6882C20.7 27.3549 20 28.1216 19.4 28.9882C18.8 29.7882 18.3667 30.6882 18.1 31.6882L12.4 52.7882C11.2 57.3216 11.6333 61.2549 13.7 64.5882ZM133.328 87.4882L140.728 59.8882C141.995 55.0882 144.161 50.4549 147.228 45.9882C150.295 41.4549 153.928 37.4882 158.128 34.0882C162.328 30.6216 166.861 27.8549 171.728 25.7882C176.661 23.6549 181.628 22.5882 186.628 22.5882H254.528C255.795 22.5882 256.895 22.8216 257.828 23.2882C258.828 23.7549 259.628 24.4216 260.228 25.2882C260.895 26.0882 261.295 27.0549 261.428 28.1882C261.628 29.2549 261.561 30.4216 261.228 31.6882L258.328 42.3882C257.928 43.9216 256.995 45.2216 255.528 46.2882C254.128 47.3549 252.695 47.8882 251.228 47.8882H211.528C210.528 47.8882 209.728 47.7549 209.128 47.4882C208.595 47.1549 208.195 46.7549 207.928 46.2882C207.661 45.8216 207.495 45.3216 207.428 44.7882C207.361 44.2549 207.328 43.7882 207.328 43.3882V42.2882C207.328 42.1549 207.295 42.0549 207.228 41.9882C207.228 41.9216 207.228 41.8549 207.228 41.7882H197.828C197.361 41.7882 196.995 41.8882 196.728 42.0882C196.461 42.2882 196.195 42.7216 195.928 43.3882C195.795 43.7882 195.661 44.2216 195.528 44.6882C195.395 45.0882 195.261 45.4882 195.128 45.8882C194.995 46.4216 194.895 46.9216 194.828 47.3882C194.761 47.7882 194.695 48.1549 194.628 48.4882C194.495 48.8882 194.528 49.2549 194.728 49.5882C194.995 49.8549 195.328 49.9882 195.728 49.9882H227.328C228.861 49.9882 229.995 50.5216 230.728 51.5882C231.528 52.6549 231.728 53.9549 231.328 55.4882L229.128 63.6882C228.728 65.2216 227.828 66.5216 226.428 67.5882C225.095 68.6549 223.661 69.1882 222.128 69.1882H190.528C190.061 69.1882 189.695 69.2882 189.428 69.4882C189.161 69.6882 188.895 70.1216 188.628 70.7882C188.295 71.6549 188.028 72.4882 187.828 73.2882C187.628 74.0882 187.428 74.9216 187.228 75.7882C187.095 76.2549 187.128 76.6549 187.328 76.9882C187.595 77.2549 187.928 77.3882 188.328 77.3882H197.728C197.795 77.3216 197.828 77.2549 197.828 77.1882C197.828 77.1216 197.895 77.0216 198.028 76.8882C198.161 76.6882 198.361 76.3216 198.628 75.7882C199.095 74.9216 199.795 73.9549 200.728 72.8882C201.728 71.8216 203.228 71.2882 205.228 71.2882H244.928C246.395 71.2882 247.561 71.8216 248.428 72.8882C249.295 73.9549 249.528 75.2549 249.128 76.7882L246.228 87.4882C245.895 88.7549 245.328 89.9549 244.528 91.0882C243.795 92.1549 242.895 93.1216 241.828 93.9882C240.761 94.7882 239.628 95.4216 238.428 95.8882C237.228 96.3549 235.995 96.5882 234.728 96.5882H140.028C137.495 96.5882 135.561 95.7216 134.228 93.9882C132.961 92.1882 132.661 90.0216 133.328 87.4882ZM140.528 94.5882H235.228C236.228 94.5882 237.195 94.4216 238.128 94.0882C239.061 93.6882 239.928 93.1549 240.728 92.4882C241.595 91.8216 242.328 91.0882 242.928 90.2882C243.528 89.4216 243.961 88.4882 244.228 87.4882L247.128 76.7882C247.395 75.8549 247.261 75.0549 246.728 74.3882C246.195 73.6549 245.428 73.2882 244.428 73.2882H204.728C203.728 73.2882 202.795 73.6549 201.928 74.3882C201.061 75.0549 200.495 75.8549 200.228 76.7882C200.028 77.5216 199.628 78.1549 199.028 78.6882C198.428 79.1549 197.761 79.3882 197.028 79.3882H187.828C186.895 79.3882 186.161 79.0549 185.628 78.3882C185.095 77.6549 184.961 76.7882 185.228 75.7882L186.628 70.6882C186.895 69.7549 187.461 68.9549 188.328 68.2882C189.195 67.5549 190.095 67.1882 191.028 67.1882H222.628C223.628 67.1882 224.561 66.8549 225.428 66.1882C226.295 65.4549 226.861 64.6216 227.128 63.6882L229.328 55.4882C229.595 54.5549 229.461 53.7549 228.928 53.0882C228.461 52.3549 227.728 51.9882 226.728 51.9882H195.128C194.195 51.9882 193.461 51.6549 192.928 50.9882C192.395 50.2549 192.295 49.4216 192.628 48.4882L193.928 43.2882C194.261 42.3549 194.861 41.5549 195.728 40.8882C196.595 40.1549 197.495 39.7882 198.428 39.7882H207.628C208.361 39.7882 208.895 40.0549 209.228 40.5882C209.561 41.0549 209.628 41.6549 209.428 42.3882C209.161 43.3216 209.261 44.1549 209.728 44.8882C210.261 45.5549 211.028 45.8882 212.028 45.8882H251.728C252.728 45.8882 253.661 45.5549 254.528 44.8882C255.461 44.1549 256.061 43.3216 256.328 42.3882L259.228 31.6882C259.761 29.7549 259.495 28.0882 258.428 26.6882C257.428 25.2882 255.961 24.5882 254.028 24.5882H186.128C181.328 24.7882 176.595 25.8549 171.928 27.7882C167.328 29.7216 163.061 32.2882 159.128 35.4882C155.261 38.6216 151.861 42.2882 148.928 46.4882C146.061 50.6882 143.995 55.1549 142.728 59.8882L135.328 87.4882C134.795 89.4216 135.028 91.0882 136.028 92.4882C137.095 93.8882 138.595 94.5882 140.528 94.5882ZM3.2 182.488L18.2 126.688C18.5333 125.422 19.0667 124.255 19.8 123.188C20.6 122.055 21.5 121.088 22.5 120.288C23.5667 119.422 24.7 118.755 25.9 118.288C27.1667 117.822 28.4333 117.588 29.7 117.588H96.2C101.333 117.588 105.9 118.588 109.9 120.588C113.9 122.522 117.133 125.188 119.6 128.588C122.067 131.922 123.667 135.855 124.4 140.388C125.2 144.922 124.9 149.755 123.5 154.888L116.1 182.488C115.767 183.755 115.2 184.955 114.4 186.088C113.667 187.155 112.767 188.122 111.7 188.988C110.7 189.788 109.567 190.422 108.3 190.888C107.1 191.355 105.867 191.588 104.6 191.588H71.9C69.3667 191.588 67.4333 190.722 66.1 188.988C64.8333 187.188 64.5333 185.022 65.2 182.488L77 138.288C77.1333 137.888 77.0667 137.555 76.8 137.288C76.6 136.955 76.3 136.788 75.9 136.788H67.7C67.3 136.788 66.9 136.955 66.5 137.288C66.1667 137.555 65.9333 137.888 65.8 138.288L54 182.488C53.6667 183.688 53.1 184.855 52.3 185.988C51.5667 187.055 50.6667 188.022 49.6 188.888C48.6 189.688 47.5 190.322 46.3 190.788C45.1 191.322 43.8667 191.588 42.6 191.588H9.9C7.36667 191.588 5.43333 190.722 4.1 188.988C2.83333 187.188 2.53333 185.022 3.2 182.488ZM10.4 189.588H43.1C44.1 189.588 45.0667 189.422 46 189.088C46.9333 188.688 47.8 188.155 48.6 187.488C49.4 186.822 50.1 186.088 50.7 185.288C51.3 184.422 51.7333 183.488 52 182.488L63.8 138.288C64.1333 137.355 64.7333 136.555 65.6 135.888C66.4667 135.155 67.3667 134.788 68.3 134.788H76.5C77.5 134.788 78.2333 135.155 78.7 135.888C79.2333 136.555 79.3333 137.355 79 138.288L67.2 182.488C66.6667 184.422 66.9 186.088 67.9 187.488C68.9667 188.888 70.4667 189.588 72.4 189.588H105.1C106.1 189.588 107.067 189.422 108 189.088C109 188.688 109.9 188.155 110.7 187.488C111.5 186.822 112.2 186.088 112.8 185.288C113.4 184.422 113.833 183.488 114.1 182.488L121.5 154.888C122.833 150.022 123.133 145.455 122.4 141.188C121.733 136.855 120.233 133.088 117.9 129.888C115.567 126.688 112.5 124.188 108.7 122.388C104.9 120.522 100.567 119.588 95.7 119.588H29.2C28.2 119.588 27.2 119.788 26.2 120.188C25.2667 120.522 24.4 121.022 23.6 121.688C22.8 122.355 22.1 123.122 21.5 123.988C20.9 124.788 20.4667 125.688 20.2 126.688L5.2 182.488C4.66667 184.422 4.9 186.088 5.9 187.488C6.96667 188.888 8.46667 189.588 10.4 189.588ZM144.347 128.188C144.547 127.122 144.814 126.022 145.147 124.888C145.747 122.888 146.947 121.188 148.747 119.788C150.547 118.322 152.447 117.588 154.447 117.588H252.747C254.68 117.588 256.047 118.088 256.847 119.088C257.647 120.022 258.114 121.155 258.247 122.488C258.247 123.622 258.08 124.855 257.747 126.188C257.614 126.722 257.447 127.288 257.247 127.888C257.114 128.422 256.98 128.955 256.847 129.488C256.247 131.488 255.047 133.222 253.247 134.688C251.447 136.088 249.547 136.788 247.547 136.788H225.347C224.88 136.788 224.447 136.955 224.047 137.288C223.714 137.555 223.48 137.888 223.347 138.288L211.547 182.488C211.214 183.688 210.647 184.855 209.847 185.988C209.114 187.055 208.214 188.022 207.147 188.888C206.147 189.688 205.047 190.322 203.847 190.788C202.647 191.322 201.414 191.588 200.147 191.588H167.447C164.914 191.588 162.98 190.722 161.647 188.988C160.38 187.188 160.08 185.022 160.747 182.488L172.547 138.288C172.68 137.888 172.614 137.555 172.347 137.288C172.147 136.955 171.847 136.788 171.447 136.788H149.247C147.314 136.788 145.914 136.322 145.047 135.388C144.247 134.455 143.847 133.288 143.847 131.888C143.847 131.288 143.88 130.688 143.947 130.088C144.014 129.422 144.147 128.788 144.347 128.188ZM149.847 134.788H172.047C172.98 134.788 173.714 135.155 174.247 135.888C174.78 136.555 174.88 137.355 174.547 138.288L162.747 182.488C162.214 184.422 162.447 186.088 163.447 187.488C164.514 188.888 166.014 189.588 167.947 189.588H200.647C201.647 189.588 202.614 189.422 203.547 189.088C204.48 188.688 205.347 188.155 206.147 187.488C206.947 186.822 207.647 186.088 208.247 185.288C208.847 184.422 209.28 183.488 209.547 182.488L221.347 138.288C221.68 137.355 222.28 136.555 223.147 135.888C224.014 135.155 224.947 134.788 225.947 134.788H248.147C249.614 134.788 250.98 134.288 252.247 133.288C253.58 132.288 254.447 131.022 254.847 129.488L256.047 124.888C256.447 123.422 256.28 122.188 255.547 121.188C254.814 120.122 253.714 119.588 252.247 119.588H153.947C152.48 119.588 151.08 120.122 149.747 121.188C148.414 122.188 147.547 123.422 147.147 124.888L145.947 129.488C145.547 131.022 145.714 132.288 146.447 133.288C147.247 134.288 148.38 134.788 149.847 134.788Z" fill="#A3A3A3"/>
<path d="M21.388 45C19.388 41.8 18.888 37.6 20.088 33.2L25.788 12.1C26.788 8.2 30.888 5 34.788 5H67.488C71.388 5 73.588 8.2 72.588 12.1L60.688 56.2C60.188 58.2 61.388 59.8 63.288 59.8H71.488C73.488 59.8 75.388 58.2 75.888 56.2L87.788 12.1C88.788 8.2 92.888 5 96.788 5H129.488C133.388 5 135.688 8.2 134.688 12.1L128.988 33.2C127.788 37.6 124.988 41.8 121.188 45L92.988 69.2C88.688 72.9 83.288 75 78.288 75H48.288C43.288 75 39.188 72.9 36.788 69.2L21.388 45ZM148.216 75C144.316 75 142.016 71.8 143.016 67.9L150.416 40.3C155.516 21.3 174.616 5.8 193.816 5H261.716C265.616 5 268.016 8.2 266.916 12.1L264.016 22.8C263.516 24.7 261.416 26.3 259.416 26.3H219.716C217.716 26.3 216.616 24.7 217.116 22.8C217.516 21.4 216.716 20.2 215.316 20.2H206.116C204.216 20.2 202.216 21.8 201.616 23.7L200.316 28.9C199.716 30.8 200.916 32.4 202.816 32.4H234.416C236.416 32.4 237.516 34 237.016 35.9L234.816 44.1C234.316 46 232.316 47.6 230.316 47.6H198.716C196.816 47.6 194.816 49.2 194.316 51.1L192.916 56.2C192.416 58.2 193.616 59.8 195.516 59.8H204.716C206.116 59.8 207.516 58.6 207.916 57.2C208.416 55.3 210.416 53.7 212.416 53.7H252.116C254.116 53.7 255.316 55.3 254.816 57.2L251.916 67.9C250.816 71.8 246.816 75 242.916 75H148.216ZM18.088 170C14.188 170 11.888 166.8 12.888 162.9L27.888 107.1C28.888 103.2 32.988 100 36.888 100H103.388C122.888 100 134.388 115.8 129.188 135.3L121.788 162.9C120.788 166.8 116.688 170 112.788 170H80.088C76.188 170 73.888 166.8 74.888 162.9L86.688 118.7C87.288 116.8 86.188 115.2 84.188 115.2H75.988C74.088 115.2 72.088 116.8 71.488 118.7L59.688 162.9C58.688 166.8 54.688 170 50.788 170H18.088ZM157.535 115.2C154.635 115.2 152.835 112.9 153.635 109.9L154.835 105.3C155.635 102.4 158.735 100 161.635 100H259.935C262.835 100 264.535 102.4 263.735 105.3L262.535 109.9C261.735 112.9 258.735 115.2 255.835 115.2H233.635C231.635 115.2 229.635 116.8 229.035 118.7L217.235 162.9C216.235 166.8 212.235 170 208.335 170H175.635C171.735 170 169.435 166.8 170.435 162.9L182.235 118.7C182.835 116.8 181.635 115.2 179.735 115.2H157.535Z" fill="#3D3A3A"/>
</svg>
